%TF.GenerationSoftware,KiCad,Pcbnew,8.0.7*%
%TF.CreationDate,2024-12-12T20:06:27+02:00*%
%TF.ProjectId,circuit diagram,63697263-7569-4742-9064-69616772616d,rev?*%
%TF.SameCoordinates,Original*%
%TF.FileFunction,Legend,Bot*%
%TF.FilePolarity,Positive*%
%FSLAX46Y46*%
G04 Gerber Fmt 4.6, Leading zero omitted, Abs format (unit mm)*
G04 Created by KiCad (PCBNEW 8.0.7) date 2024-12-12 20:06:27*
%MOMM*%
%LPD*%
G01*
G04 APERTURE LIST*
%ADD10C,0.150000*%
%ADD11C,0.152400*%
%ADD12C,0.120000*%
G04 APERTURE END LIST*
D10*
X44362666Y-97058819D02*
X44695999Y-96582628D01*
X44934094Y-97058819D02*
X44934094Y-96058819D01*
X44934094Y-96058819D02*
X44553142Y-96058819D01*
X44553142Y-96058819D02*
X44457904Y-96106438D01*
X44457904Y-96106438D02*
X44410285Y-96154057D01*
X44410285Y-96154057D02*
X44362666Y-96249295D01*
X44362666Y-96249295D02*
X44362666Y-96392152D01*
X44362666Y-96392152D02*
X44410285Y-96487390D01*
X44410285Y-96487390D02*
X44457904Y-96535009D01*
X44457904Y-96535009D02*
X44553142Y-96582628D01*
X44553142Y-96582628D02*
X44934094Y-96582628D01*
X43505523Y-96392152D02*
X43505523Y-97058819D01*
X43743618Y-96011200D02*
X43981713Y-96725485D01*
X43981713Y-96725485D02*
X43362666Y-96725485D01*
X61752819Y-84193142D02*
X61276628Y-83859809D01*
X61752819Y-83621714D02*
X60752819Y-83621714D01*
X60752819Y-83621714D02*
X60752819Y-84002666D01*
X60752819Y-84002666D02*
X60800438Y-84097904D01*
X60800438Y-84097904D02*
X60848057Y-84145523D01*
X60848057Y-84145523D02*
X60943295Y-84193142D01*
X60943295Y-84193142D02*
X61086152Y-84193142D01*
X61086152Y-84193142D02*
X61181390Y-84145523D01*
X61181390Y-84145523D02*
X61229009Y-84097904D01*
X61229009Y-84097904D02*
X61276628Y-84002666D01*
X61276628Y-84002666D02*
X61276628Y-83621714D01*
X61752819Y-85145523D02*
X61752819Y-84574095D01*
X61752819Y-84859809D02*
X60752819Y-84859809D01*
X60752819Y-84859809D02*
X60895676Y-84764571D01*
X60895676Y-84764571D02*
X60990914Y-84669333D01*
X60990914Y-84669333D02*
X61038533Y-84574095D01*
X61752819Y-86097904D02*
X61752819Y-85526476D01*
X61752819Y-85812190D02*
X60752819Y-85812190D01*
X60752819Y-85812190D02*
X60895676Y-85716952D01*
X60895676Y-85716952D02*
X60990914Y-85621714D01*
X60990914Y-85621714D02*
X61038533Y-85526476D01*
X74010819Y-67818095D02*
X74820342Y-67818095D01*
X74820342Y-67818095D02*
X74915580Y-67865714D01*
X74915580Y-67865714D02*
X74963200Y-67913333D01*
X74963200Y-67913333D02*
X75010819Y-68008571D01*
X75010819Y-68008571D02*
X75010819Y-68199047D01*
X75010819Y-68199047D02*
X74963200Y-68294285D01*
X74963200Y-68294285D02*
X74915580Y-68341904D01*
X74915580Y-68341904D02*
X74820342Y-68389523D01*
X74820342Y-68389523D02*
X74010819Y-68389523D01*
X74010819Y-69341904D02*
X74010819Y-68865714D01*
X74010819Y-68865714D02*
X74487009Y-68818095D01*
X74487009Y-68818095D02*
X74439390Y-68865714D01*
X74439390Y-68865714D02*
X74391771Y-68960952D01*
X74391771Y-68960952D02*
X74391771Y-69199047D01*
X74391771Y-69199047D02*
X74439390Y-69294285D01*
X74439390Y-69294285D02*
X74487009Y-69341904D01*
X74487009Y-69341904D02*
X74582247Y-69389523D01*
X74582247Y-69389523D02*
X74820342Y-69389523D01*
X74820342Y-69389523D02*
X74915580Y-69341904D01*
X74915580Y-69341904D02*
X74963200Y-69294285D01*
X74963200Y-69294285D02*
X75010819Y-69199047D01*
X75010819Y-69199047D02*
X75010819Y-68960952D01*
X75010819Y-68960952D02*
X74963200Y-68865714D01*
X74963200Y-68865714D02*
X74915580Y-68818095D01*
X86710819Y-67818095D02*
X87520342Y-67818095D01*
X87520342Y-67818095D02*
X87615580Y-67865714D01*
X87615580Y-67865714D02*
X87663200Y-67913333D01*
X87663200Y-67913333D02*
X87710819Y-68008571D01*
X87710819Y-68008571D02*
X87710819Y-68199047D01*
X87710819Y-68199047D02*
X87663200Y-68294285D01*
X87663200Y-68294285D02*
X87615580Y-68341904D01*
X87615580Y-68341904D02*
X87520342Y-68389523D01*
X87520342Y-68389523D02*
X86710819Y-68389523D01*
X86710819Y-69294285D02*
X86710819Y-69103809D01*
X86710819Y-69103809D02*
X86758438Y-69008571D01*
X86758438Y-69008571D02*
X86806057Y-68960952D01*
X86806057Y-68960952D02*
X86948914Y-68865714D01*
X86948914Y-68865714D02*
X87139390Y-68818095D01*
X87139390Y-68818095D02*
X87520342Y-68818095D01*
X87520342Y-68818095D02*
X87615580Y-68865714D01*
X87615580Y-68865714D02*
X87663200Y-68913333D01*
X87663200Y-68913333D02*
X87710819Y-69008571D01*
X87710819Y-69008571D02*
X87710819Y-69199047D01*
X87710819Y-69199047D02*
X87663200Y-69294285D01*
X87663200Y-69294285D02*
X87615580Y-69341904D01*
X87615580Y-69341904D02*
X87520342Y-69389523D01*
X87520342Y-69389523D02*
X87282247Y-69389523D01*
X87282247Y-69389523D02*
X87187009Y-69341904D01*
X87187009Y-69341904D02*
X87139390Y-69294285D01*
X87139390Y-69294285D02*
X87091771Y-69199047D01*
X87091771Y-69199047D02*
X87091771Y-69008571D01*
X87091771Y-69008571D02*
X87139390Y-68913333D01*
X87139390Y-68913333D02*
X87187009Y-68865714D01*
X87187009Y-68865714D02*
X87282247Y-68818095D01*
X58704819Y-84193142D02*
X58228628Y-83859809D01*
X58704819Y-83621714D02*
X57704819Y-83621714D01*
X57704819Y-83621714D02*
X57704819Y-84002666D01*
X57704819Y-84002666D02*
X57752438Y-84097904D01*
X57752438Y-84097904D02*
X57800057Y-84145523D01*
X57800057Y-84145523D02*
X57895295Y-84193142D01*
X57895295Y-84193142D02*
X58038152Y-84193142D01*
X58038152Y-84193142D02*
X58133390Y-84145523D01*
X58133390Y-84145523D02*
X58181009Y-84097904D01*
X58181009Y-84097904D02*
X58228628Y-84002666D01*
X58228628Y-84002666D02*
X58228628Y-83621714D01*
X58704819Y-85145523D02*
X58704819Y-84574095D01*
X58704819Y-84859809D02*
X57704819Y-84859809D01*
X57704819Y-84859809D02*
X57847676Y-84764571D01*
X57847676Y-84764571D02*
X57942914Y-84669333D01*
X57942914Y-84669333D02*
X57990533Y-84574095D01*
X57704819Y-85764571D02*
X57704819Y-85859809D01*
X57704819Y-85859809D02*
X57752438Y-85955047D01*
X57752438Y-85955047D02*
X57800057Y-86002666D01*
X57800057Y-86002666D02*
X57895295Y-86050285D01*
X57895295Y-86050285D02*
X58085771Y-86097904D01*
X58085771Y-86097904D02*
X58323866Y-86097904D01*
X58323866Y-86097904D02*
X58514342Y-86050285D01*
X58514342Y-86050285D02*
X58609580Y-86002666D01*
X58609580Y-86002666D02*
X58657200Y-85955047D01*
X58657200Y-85955047D02*
X58704819Y-85859809D01*
X58704819Y-85859809D02*
X58704819Y-85764571D01*
X58704819Y-85764571D02*
X58657200Y-85669333D01*
X58657200Y-85669333D02*
X58609580Y-85621714D01*
X58609580Y-85621714D02*
X58514342Y-85574095D01*
X58514342Y-85574095D02*
X58323866Y-85526476D01*
X58323866Y-85526476D02*
X58085771Y-85526476D01*
X58085771Y-85526476D02*
X57895295Y-85574095D01*
X57895295Y-85574095D02*
X57800057Y-85621714D01*
X57800057Y-85621714D02*
X57752438Y-85669333D01*
X57752438Y-85669333D02*
X57704819Y-85764571D01*
D11*
X43184964Y-51777731D02*
X43184964Y-50964931D01*
X42720507Y-51777731D02*
X43068849Y-51313274D01*
X42720507Y-50964931D02*
X43184964Y-51429388D01*
X41985116Y-51777731D02*
X42372164Y-51777731D01*
X42372164Y-51777731D02*
X42372164Y-50964931D01*
X41481954Y-50964931D02*
X41481954Y-51545503D01*
X41481954Y-51545503D02*
X41520659Y-51661617D01*
X41520659Y-51661617D02*
X41598068Y-51739027D01*
X41598068Y-51739027D02*
X41714183Y-51777731D01*
X41714183Y-51777731D02*
X41791592Y-51777731D01*
X41094907Y-51468093D02*
X40475631Y-51468093D01*
X39662830Y-51777731D02*
X40127287Y-51777731D01*
X39895059Y-51777731D02*
X39895059Y-50964931D01*
X39895059Y-50964931D02*
X39972468Y-51081046D01*
X39972468Y-51081046D02*
X40049878Y-51158455D01*
X40049878Y-51158455D02*
X40127287Y-51197160D01*
X38946666Y-44913351D02*
X38946666Y-44100551D01*
X38946666Y-44487599D02*
X38482209Y-44487599D01*
X38482209Y-44913351D02*
X38482209Y-44100551D01*
X37940342Y-44100551D02*
X37785523Y-44100551D01*
X37785523Y-44100551D02*
X37708113Y-44139256D01*
X37708113Y-44139256D02*
X37630704Y-44216666D01*
X37630704Y-44216666D02*
X37591999Y-44371485D01*
X37591999Y-44371485D02*
X37591999Y-44642418D01*
X37591999Y-44642418D02*
X37630704Y-44797237D01*
X37630704Y-44797237D02*
X37708113Y-44874647D01*
X37708113Y-44874647D02*
X37785523Y-44913351D01*
X37785523Y-44913351D02*
X37940342Y-44913351D01*
X37940342Y-44913351D02*
X38017751Y-44874647D01*
X38017751Y-44874647D02*
X38095161Y-44797237D01*
X38095161Y-44797237D02*
X38133865Y-44642418D01*
X38133865Y-44642418D02*
X38133865Y-44371485D01*
X38133865Y-44371485D02*
X38095161Y-44216666D01*
X38095161Y-44216666D02*
X38017751Y-44139256D01*
X38017751Y-44139256D02*
X37940342Y-44100551D01*
X36856608Y-44913351D02*
X37243656Y-44913351D01*
X37243656Y-44913351D02*
X37243656Y-44100551D01*
X36585675Y-44487599D02*
X36314741Y-44487599D01*
X36198627Y-44913351D02*
X36585675Y-44913351D01*
X36585675Y-44913351D02*
X36585675Y-44100551D01*
X36585675Y-44100551D02*
X36198627Y-44100551D01*
D10*
X95733332Y-30956200D02*
X95590475Y-31003819D01*
X95590475Y-31003819D02*
X95352380Y-31003819D01*
X95352380Y-31003819D02*
X95257142Y-30956200D01*
X95257142Y-30956200D02*
X95209523Y-30908580D01*
X95209523Y-30908580D02*
X95161904Y-30813342D01*
X95161904Y-30813342D02*
X95161904Y-30718104D01*
X95161904Y-30718104D02*
X95209523Y-30622866D01*
X95209523Y-30622866D02*
X95257142Y-30575247D01*
X95257142Y-30575247D02*
X95352380Y-30527628D01*
X95352380Y-30527628D02*
X95542856Y-30480009D01*
X95542856Y-30480009D02*
X95638094Y-30432390D01*
X95638094Y-30432390D02*
X95685713Y-30384771D01*
X95685713Y-30384771D02*
X95733332Y-30289533D01*
X95733332Y-30289533D02*
X95733332Y-30194295D01*
X95733332Y-30194295D02*
X95685713Y-30099057D01*
X95685713Y-30099057D02*
X95638094Y-30051438D01*
X95638094Y-30051438D02*
X95542856Y-30003819D01*
X95542856Y-30003819D02*
X95304761Y-30003819D01*
X95304761Y-30003819D02*
X95161904Y-30051438D01*
X94828570Y-30003819D02*
X94590475Y-31003819D01*
X94590475Y-31003819D02*
X94399999Y-30289533D01*
X94399999Y-30289533D02*
X94209523Y-31003819D01*
X94209523Y-31003819D02*
X93971428Y-30003819D01*
X93685713Y-30003819D02*
X93066666Y-30003819D01*
X93066666Y-30003819D02*
X93399999Y-30384771D01*
X93399999Y-30384771D02*
X93257142Y-30384771D01*
X93257142Y-30384771D02*
X93161904Y-30432390D01*
X93161904Y-30432390D02*
X93114285Y-30480009D01*
X93114285Y-30480009D02*
X93066666Y-30575247D01*
X93066666Y-30575247D02*
X93066666Y-30813342D01*
X93066666Y-30813342D02*
X93114285Y-30908580D01*
X93114285Y-30908580D02*
X93161904Y-30956200D01*
X93161904Y-30956200D02*
X93257142Y-31003819D01*
X93257142Y-31003819D02*
X93542856Y-31003819D01*
X93542856Y-31003819D02*
X93638094Y-30956200D01*
X93638094Y-30956200D02*
X93685713Y-30908580D01*
X33353333Y-62153819D02*
X33353333Y-62868104D01*
X33353333Y-62868104D02*
X33400952Y-63010961D01*
X33400952Y-63010961D02*
X33496190Y-63106200D01*
X33496190Y-63106200D02*
X33639047Y-63153819D01*
X33639047Y-63153819D02*
X33734285Y-63153819D01*
X32448571Y-62487152D02*
X32448571Y-63153819D01*
X32686666Y-62106200D02*
X32924761Y-62820485D01*
X32924761Y-62820485D02*
X32305714Y-62820485D01*
X81056819Y-84193142D02*
X80580628Y-83859809D01*
X81056819Y-83621714D02*
X80056819Y-83621714D01*
X80056819Y-83621714D02*
X80056819Y-84002666D01*
X80056819Y-84002666D02*
X80104438Y-84097904D01*
X80104438Y-84097904D02*
X80152057Y-84145523D01*
X80152057Y-84145523D02*
X80247295Y-84193142D01*
X80247295Y-84193142D02*
X80390152Y-84193142D01*
X80390152Y-84193142D02*
X80485390Y-84145523D01*
X80485390Y-84145523D02*
X80533009Y-84097904D01*
X80533009Y-84097904D02*
X80580628Y-84002666D01*
X80580628Y-84002666D02*
X80580628Y-83621714D01*
X80152057Y-84574095D02*
X80104438Y-84621714D01*
X80104438Y-84621714D02*
X80056819Y-84716952D01*
X80056819Y-84716952D02*
X80056819Y-84955047D01*
X80056819Y-84955047D02*
X80104438Y-85050285D01*
X80104438Y-85050285D02*
X80152057Y-85097904D01*
X80152057Y-85097904D02*
X80247295Y-85145523D01*
X80247295Y-85145523D02*
X80342533Y-85145523D01*
X80342533Y-85145523D02*
X80485390Y-85097904D01*
X80485390Y-85097904D02*
X81056819Y-84526476D01*
X81056819Y-84526476D02*
X81056819Y-85145523D01*
X80056819Y-85478857D02*
X80056819Y-86097904D01*
X80056819Y-86097904D02*
X80437771Y-85764571D01*
X80437771Y-85764571D02*
X80437771Y-85907428D01*
X80437771Y-85907428D02*
X80485390Y-86002666D01*
X80485390Y-86002666D02*
X80533009Y-86050285D01*
X80533009Y-86050285D02*
X80628247Y-86097904D01*
X80628247Y-86097904D02*
X80866342Y-86097904D01*
X80866342Y-86097904D02*
X80961580Y-86050285D01*
X80961580Y-86050285D02*
X81009200Y-86002666D01*
X81009200Y-86002666D02*
X81056819Y-85907428D01*
X81056819Y-85907428D02*
X81056819Y-85621714D01*
X81056819Y-85621714D02*
X81009200Y-85526476D01*
X81009200Y-85526476D02*
X80961580Y-85478857D01*
X44939094Y-95808819D02*
X44939094Y-94808819D01*
X44939094Y-94808819D02*
X44700999Y-94808819D01*
X44700999Y-94808819D02*
X44558142Y-94856438D01*
X44558142Y-94856438D02*
X44462904Y-94951676D01*
X44462904Y-94951676D02*
X44415285Y-95046914D01*
X44415285Y-95046914D02*
X44367666Y-95237390D01*
X44367666Y-95237390D02*
X44367666Y-95380247D01*
X44367666Y-95380247D02*
X44415285Y-95570723D01*
X44415285Y-95570723D02*
X44462904Y-95665961D01*
X44462904Y-95665961D02*
X44558142Y-95761200D01*
X44558142Y-95761200D02*
X44700999Y-95808819D01*
X44700999Y-95808819D02*
X44939094Y-95808819D01*
X43510523Y-95142152D02*
X43510523Y-95808819D01*
X43748618Y-94761200D02*
X43986713Y-95475485D01*
X43986713Y-95475485D02*
X43367666Y-95475485D01*
X61310819Y-67818095D02*
X62120342Y-67818095D01*
X62120342Y-67818095D02*
X62215580Y-67865714D01*
X62215580Y-67865714D02*
X62263200Y-67913333D01*
X62263200Y-67913333D02*
X62310819Y-68008571D01*
X62310819Y-68008571D02*
X62310819Y-68199047D01*
X62310819Y-68199047D02*
X62263200Y-68294285D01*
X62263200Y-68294285D02*
X62215580Y-68341904D01*
X62215580Y-68341904D02*
X62120342Y-68389523D01*
X62120342Y-68389523D02*
X61310819Y-68389523D01*
X61644152Y-69294285D02*
X62310819Y-69294285D01*
X61263200Y-69056190D02*
X61977485Y-68818095D01*
X61977485Y-68818095D02*
X61977485Y-69437142D01*
X59602666Y-97058819D02*
X59935999Y-96582628D01*
X60174094Y-97058819D02*
X60174094Y-96058819D01*
X60174094Y-96058819D02*
X59793142Y-96058819D01*
X59793142Y-96058819D02*
X59697904Y-96106438D01*
X59697904Y-96106438D02*
X59650285Y-96154057D01*
X59650285Y-96154057D02*
X59602666Y-96249295D01*
X59602666Y-96249295D02*
X59602666Y-96392152D01*
X59602666Y-96392152D02*
X59650285Y-96487390D01*
X59650285Y-96487390D02*
X59697904Y-96535009D01*
X59697904Y-96535009D02*
X59793142Y-96582628D01*
X59793142Y-96582628D02*
X60174094Y-96582628D01*
X59221713Y-96154057D02*
X59174094Y-96106438D01*
X59174094Y-96106438D02*
X59078856Y-96058819D01*
X59078856Y-96058819D02*
X58840761Y-96058819D01*
X58840761Y-96058819D02*
X58745523Y-96106438D01*
X58745523Y-96106438D02*
X58697904Y-96154057D01*
X58697904Y-96154057D02*
X58650285Y-96249295D01*
X58650285Y-96249295D02*
X58650285Y-96344533D01*
X58650285Y-96344533D02*
X58697904Y-96487390D01*
X58697904Y-96487390D02*
X59269332Y-97058819D01*
X59269332Y-97058819D02*
X58650285Y-97058819D01*
X55488819Y-51649333D02*
X55012628Y-51316000D01*
X55488819Y-51077905D02*
X54488819Y-51077905D01*
X54488819Y-51077905D02*
X54488819Y-51458857D01*
X54488819Y-51458857D02*
X54536438Y-51554095D01*
X54536438Y-51554095D02*
X54584057Y-51601714D01*
X54584057Y-51601714D02*
X54679295Y-51649333D01*
X54679295Y-51649333D02*
X54822152Y-51649333D01*
X54822152Y-51649333D02*
X54917390Y-51601714D01*
X54917390Y-51601714D02*
X54965009Y-51554095D01*
X54965009Y-51554095D02*
X55012628Y-51458857D01*
X55012628Y-51458857D02*
X55012628Y-51077905D01*
X54488819Y-52554095D02*
X54488819Y-52077905D01*
X54488819Y-52077905D02*
X54965009Y-52030286D01*
X54965009Y-52030286D02*
X54917390Y-52077905D01*
X54917390Y-52077905D02*
X54869771Y-52173143D01*
X54869771Y-52173143D02*
X54869771Y-52411238D01*
X54869771Y-52411238D02*
X54917390Y-52506476D01*
X54917390Y-52506476D02*
X54965009Y-52554095D01*
X54965009Y-52554095D02*
X55060247Y-52601714D01*
X55060247Y-52601714D02*
X55298342Y-52601714D01*
X55298342Y-52601714D02*
X55393580Y-52554095D01*
X55393580Y-52554095D02*
X55441200Y-52506476D01*
X55441200Y-52506476D02*
X55488819Y-52411238D01*
X55488819Y-52411238D02*
X55488819Y-52173143D01*
X55488819Y-52173143D02*
X55441200Y-52077905D01*
X55441200Y-52077905D02*
X55393580Y-52030286D01*
X59245332Y-104166200D02*
X59102475Y-104213819D01*
X59102475Y-104213819D02*
X58864380Y-104213819D01*
X58864380Y-104213819D02*
X58769142Y-104166200D01*
X58769142Y-104166200D02*
X58721523Y-104118580D01*
X58721523Y-104118580D02*
X58673904Y-104023342D01*
X58673904Y-104023342D02*
X58673904Y-103928104D01*
X58673904Y-103928104D02*
X58721523Y-103832866D01*
X58721523Y-103832866D02*
X58769142Y-103785247D01*
X58769142Y-103785247D02*
X58864380Y-103737628D01*
X58864380Y-103737628D02*
X59054856Y-103690009D01*
X59054856Y-103690009D02*
X59150094Y-103642390D01*
X59150094Y-103642390D02*
X59197713Y-103594771D01*
X59197713Y-103594771D02*
X59245332Y-103499533D01*
X59245332Y-103499533D02*
X59245332Y-103404295D01*
X59245332Y-103404295D02*
X59197713Y-103309057D01*
X59197713Y-103309057D02*
X59150094Y-103261438D01*
X59150094Y-103261438D02*
X59054856Y-103213819D01*
X59054856Y-103213819D02*
X58816761Y-103213819D01*
X58816761Y-103213819D02*
X58673904Y-103261438D01*
X58340570Y-103213819D02*
X58102475Y-104213819D01*
X58102475Y-104213819D02*
X57911999Y-103499533D01*
X57911999Y-103499533D02*
X57721523Y-104213819D01*
X57721523Y-104213819D02*
X57483428Y-103213819D01*
X57150094Y-103309057D02*
X57102475Y-103261438D01*
X57102475Y-103261438D02*
X57007237Y-103213819D01*
X57007237Y-103213819D02*
X56769142Y-103213819D01*
X56769142Y-103213819D02*
X56673904Y-103261438D01*
X56673904Y-103261438D02*
X56626285Y-103309057D01*
X56626285Y-103309057D02*
X56578666Y-103404295D01*
X56578666Y-103404295D02*
X56578666Y-103499533D01*
X56578666Y-103499533D02*
X56626285Y-103642390D01*
X56626285Y-103642390D02*
X57197713Y-104213819D01*
X57197713Y-104213819D02*
X56578666Y-104213819D01*
X52440819Y-51649333D02*
X51964628Y-51316000D01*
X52440819Y-51077905D02*
X51440819Y-51077905D01*
X51440819Y-51077905D02*
X51440819Y-51458857D01*
X51440819Y-51458857D02*
X51488438Y-51554095D01*
X51488438Y-51554095D02*
X51536057Y-51601714D01*
X51536057Y-51601714D02*
X51631295Y-51649333D01*
X51631295Y-51649333D02*
X51774152Y-51649333D01*
X51774152Y-51649333D02*
X51869390Y-51601714D01*
X51869390Y-51601714D02*
X51917009Y-51554095D01*
X51917009Y-51554095D02*
X51964628Y-51458857D01*
X51964628Y-51458857D02*
X51964628Y-51077905D01*
X51440819Y-52506476D02*
X51440819Y-52316000D01*
X51440819Y-52316000D02*
X51488438Y-52220762D01*
X51488438Y-52220762D02*
X51536057Y-52173143D01*
X51536057Y-52173143D02*
X51678914Y-52077905D01*
X51678914Y-52077905D02*
X51869390Y-52030286D01*
X51869390Y-52030286D02*
X52250342Y-52030286D01*
X52250342Y-52030286D02*
X52345580Y-52077905D01*
X52345580Y-52077905D02*
X52393200Y-52125524D01*
X52393200Y-52125524D02*
X52440819Y-52220762D01*
X52440819Y-52220762D02*
X52440819Y-52411238D01*
X52440819Y-52411238D02*
X52393200Y-52506476D01*
X52393200Y-52506476D02*
X52345580Y-52554095D01*
X52345580Y-52554095D02*
X52250342Y-52601714D01*
X52250342Y-52601714D02*
X52012247Y-52601714D01*
X52012247Y-52601714D02*
X51917009Y-52554095D01*
X51917009Y-52554095D02*
X51869390Y-52506476D01*
X51869390Y-52506476D02*
X51821771Y-52411238D01*
X51821771Y-52411238D02*
X51821771Y-52220762D01*
X51821771Y-52220762D02*
X51869390Y-52125524D01*
X51869390Y-52125524D02*
X51917009Y-52077905D01*
X51917009Y-52077905D02*
X52012247Y-52030286D01*
X74792819Y-51173142D02*
X74316628Y-50839809D01*
X74792819Y-50601714D02*
X73792819Y-50601714D01*
X73792819Y-50601714D02*
X73792819Y-50982666D01*
X73792819Y-50982666D02*
X73840438Y-51077904D01*
X73840438Y-51077904D02*
X73888057Y-51125523D01*
X73888057Y-51125523D02*
X73983295Y-51173142D01*
X73983295Y-51173142D02*
X74126152Y-51173142D01*
X74126152Y-51173142D02*
X74221390Y-51125523D01*
X74221390Y-51125523D02*
X74269009Y-51077904D01*
X74269009Y-51077904D02*
X74316628Y-50982666D01*
X74316628Y-50982666D02*
X74316628Y-50601714D01*
X73888057Y-51554095D02*
X73840438Y-51601714D01*
X73840438Y-51601714D02*
X73792819Y-51696952D01*
X73792819Y-51696952D02*
X73792819Y-51935047D01*
X73792819Y-51935047D02*
X73840438Y-52030285D01*
X73840438Y-52030285D02*
X73888057Y-52077904D01*
X73888057Y-52077904D02*
X73983295Y-52125523D01*
X73983295Y-52125523D02*
X74078533Y-52125523D01*
X74078533Y-52125523D02*
X74221390Y-52077904D01*
X74221390Y-52077904D02*
X74792819Y-51506476D01*
X74792819Y-51506476D02*
X74792819Y-52125523D01*
X74792819Y-53077904D02*
X74792819Y-52506476D01*
X74792819Y-52792190D02*
X73792819Y-52792190D01*
X73792819Y-52792190D02*
X73935676Y-52696952D01*
X73935676Y-52696952D02*
X74030914Y-52601714D01*
X74030914Y-52601714D02*
X74078533Y-52506476D01*
X74452819Y-84193142D02*
X73976628Y-83859809D01*
X74452819Y-83621714D02*
X73452819Y-83621714D01*
X73452819Y-83621714D02*
X73452819Y-84002666D01*
X73452819Y-84002666D02*
X73500438Y-84097904D01*
X73500438Y-84097904D02*
X73548057Y-84145523D01*
X73548057Y-84145523D02*
X73643295Y-84193142D01*
X73643295Y-84193142D02*
X73786152Y-84193142D01*
X73786152Y-84193142D02*
X73881390Y-84145523D01*
X73881390Y-84145523D02*
X73929009Y-84097904D01*
X73929009Y-84097904D02*
X73976628Y-84002666D01*
X73976628Y-84002666D02*
X73976628Y-83621714D01*
X74452819Y-85145523D02*
X74452819Y-84574095D01*
X74452819Y-84859809D02*
X73452819Y-84859809D01*
X73452819Y-84859809D02*
X73595676Y-84764571D01*
X73595676Y-84764571D02*
X73690914Y-84669333D01*
X73690914Y-84669333D02*
X73738533Y-84574095D01*
X73881390Y-85716952D02*
X73833771Y-85621714D01*
X73833771Y-85621714D02*
X73786152Y-85574095D01*
X73786152Y-85574095D02*
X73690914Y-85526476D01*
X73690914Y-85526476D02*
X73643295Y-85526476D01*
X73643295Y-85526476D02*
X73548057Y-85574095D01*
X73548057Y-85574095D02*
X73500438Y-85621714D01*
X73500438Y-85621714D02*
X73452819Y-85716952D01*
X73452819Y-85716952D02*
X73452819Y-85907428D01*
X73452819Y-85907428D02*
X73500438Y-86002666D01*
X73500438Y-86002666D02*
X73548057Y-86050285D01*
X73548057Y-86050285D02*
X73643295Y-86097904D01*
X73643295Y-86097904D02*
X73690914Y-86097904D01*
X73690914Y-86097904D02*
X73786152Y-86050285D01*
X73786152Y-86050285D02*
X73833771Y-86002666D01*
X73833771Y-86002666D02*
X73881390Y-85907428D01*
X73881390Y-85907428D02*
X73881390Y-85716952D01*
X73881390Y-85716952D02*
X73929009Y-85621714D01*
X73929009Y-85621714D02*
X73976628Y-85574095D01*
X73976628Y-85574095D02*
X74071866Y-85526476D01*
X74071866Y-85526476D02*
X74262342Y-85526476D01*
X74262342Y-85526476D02*
X74357580Y-85574095D01*
X74357580Y-85574095D02*
X74405200Y-85621714D01*
X74405200Y-85621714D02*
X74452819Y-85716952D01*
X74452819Y-85716952D02*
X74452819Y-85907428D01*
X74452819Y-85907428D02*
X74405200Y-86002666D01*
X74405200Y-86002666D02*
X74357580Y-86050285D01*
X74357580Y-86050285D02*
X74262342Y-86097904D01*
X74262342Y-86097904D02*
X74071866Y-86097904D01*
X74071866Y-86097904D02*
X73976628Y-86050285D01*
X73976628Y-86050285D02*
X73929009Y-86002666D01*
X73929009Y-86002666D02*
X73881390Y-85907428D01*
X52608819Y-84669333D02*
X52132628Y-84336000D01*
X52608819Y-84097905D02*
X51608819Y-84097905D01*
X51608819Y-84097905D02*
X51608819Y-84478857D01*
X51608819Y-84478857D02*
X51656438Y-84574095D01*
X51656438Y-84574095D02*
X51704057Y-84621714D01*
X51704057Y-84621714D02*
X51799295Y-84669333D01*
X51799295Y-84669333D02*
X51942152Y-84669333D01*
X51942152Y-84669333D02*
X52037390Y-84621714D01*
X52037390Y-84621714D02*
X52085009Y-84574095D01*
X52085009Y-84574095D02*
X52132628Y-84478857D01*
X52132628Y-84478857D02*
X52132628Y-84097905D01*
X52037390Y-85240762D02*
X51989771Y-85145524D01*
X51989771Y-85145524D02*
X51942152Y-85097905D01*
X51942152Y-85097905D02*
X51846914Y-85050286D01*
X51846914Y-85050286D02*
X51799295Y-85050286D01*
X51799295Y-85050286D02*
X51704057Y-85097905D01*
X51704057Y-85097905D02*
X51656438Y-85145524D01*
X51656438Y-85145524D02*
X51608819Y-85240762D01*
X51608819Y-85240762D02*
X51608819Y-85431238D01*
X51608819Y-85431238D02*
X51656438Y-85526476D01*
X51656438Y-85526476D02*
X51704057Y-85574095D01*
X51704057Y-85574095D02*
X51799295Y-85621714D01*
X51799295Y-85621714D02*
X51846914Y-85621714D01*
X51846914Y-85621714D02*
X51942152Y-85574095D01*
X51942152Y-85574095D02*
X51989771Y-85526476D01*
X51989771Y-85526476D02*
X52037390Y-85431238D01*
X52037390Y-85431238D02*
X52037390Y-85240762D01*
X52037390Y-85240762D02*
X52085009Y-85145524D01*
X52085009Y-85145524D02*
X52132628Y-85097905D01*
X52132628Y-85097905D02*
X52227866Y-85050286D01*
X52227866Y-85050286D02*
X52418342Y-85050286D01*
X52418342Y-85050286D02*
X52513580Y-85097905D01*
X52513580Y-85097905D02*
X52561200Y-85145524D01*
X52561200Y-85145524D02*
X52608819Y-85240762D01*
X52608819Y-85240762D02*
X52608819Y-85431238D01*
X52608819Y-85431238D02*
X52561200Y-85526476D01*
X52561200Y-85526476D02*
X52513580Y-85574095D01*
X52513580Y-85574095D02*
X52418342Y-85621714D01*
X52418342Y-85621714D02*
X52227866Y-85621714D01*
X52227866Y-85621714D02*
X52132628Y-85574095D01*
X52132628Y-85574095D02*
X52085009Y-85526476D01*
X52085009Y-85526476D02*
X52037390Y-85431238D01*
X77533332Y-104166200D02*
X77390475Y-104213819D01*
X77390475Y-104213819D02*
X77152380Y-104213819D01*
X77152380Y-104213819D02*
X77057142Y-104166200D01*
X77057142Y-104166200D02*
X77009523Y-104118580D01*
X77009523Y-104118580D02*
X76961904Y-104023342D01*
X76961904Y-104023342D02*
X76961904Y-103928104D01*
X76961904Y-103928104D02*
X77009523Y-103832866D01*
X77009523Y-103832866D02*
X77057142Y-103785247D01*
X77057142Y-103785247D02*
X77152380Y-103737628D01*
X77152380Y-103737628D02*
X77342856Y-103690009D01*
X77342856Y-103690009D02*
X77438094Y-103642390D01*
X77438094Y-103642390D02*
X77485713Y-103594771D01*
X77485713Y-103594771D02*
X77533332Y-103499533D01*
X77533332Y-103499533D02*
X77533332Y-103404295D01*
X77533332Y-103404295D02*
X77485713Y-103309057D01*
X77485713Y-103309057D02*
X77438094Y-103261438D01*
X77438094Y-103261438D02*
X77342856Y-103213819D01*
X77342856Y-103213819D02*
X77104761Y-103213819D01*
X77104761Y-103213819D02*
X76961904Y-103261438D01*
X76628570Y-103213819D02*
X76390475Y-104213819D01*
X76390475Y-104213819D02*
X76199999Y-103499533D01*
X76199999Y-103499533D02*
X76009523Y-104213819D01*
X76009523Y-104213819D02*
X75771428Y-103213819D01*
X74961904Y-103547152D02*
X74961904Y-104213819D01*
X75199999Y-103166200D02*
X75438094Y-103880485D01*
X75438094Y-103880485D02*
X74819047Y-103880485D01*
X65140819Y-51173142D02*
X64664628Y-50839809D01*
X65140819Y-50601714D02*
X64140819Y-50601714D01*
X64140819Y-50601714D02*
X64140819Y-50982666D01*
X64140819Y-50982666D02*
X64188438Y-51077904D01*
X64188438Y-51077904D02*
X64236057Y-51125523D01*
X64236057Y-51125523D02*
X64331295Y-51173142D01*
X64331295Y-51173142D02*
X64474152Y-51173142D01*
X64474152Y-51173142D02*
X64569390Y-51125523D01*
X64569390Y-51125523D02*
X64617009Y-51077904D01*
X64617009Y-51077904D02*
X64664628Y-50982666D01*
X64664628Y-50982666D02*
X64664628Y-50601714D01*
X65140819Y-52125523D02*
X65140819Y-51554095D01*
X65140819Y-51839809D02*
X64140819Y-51839809D01*
X64140819Y-51839809D02*
X64283676Y-51744571D01*
X64283676Y-51744571D02*
X64378914Y-51649333D01*
X64378914Y-51649333D02*
X64426533Y-51554095D01*
X64140819Y-52458857D02*
X64140819Y-53077904D01*
X64140819Y-53077904D02*
X64521771Y-52744571D01*
X64521771Y-52744571D02*
X64521771Y-52887428D01*
X64521771Y-52887428D02*
X64569390Y-52982666D01*
X64569390Y-52982666D02*
X64617009Y-53030285D01*
X64617009Y-53030285D02*
X64712247Y-53077904D01*
X64712247Y-53077904D02*
X64950342Y-53077904D01*
X64950342Y-53077904D02*
X65045580Y-53030285D01*
X65045580Y-53030285D02*
X65093200Y-52982666D01*
X65093200Y-52982666D02*
X65140819Y-52887428D01*
X65140819Y-52887428D02*
X65140819Y-52601714D01*
X65140819Y-52601714D02*
X65093200Y-52506476D01*
X65093200Y-52506476D02*
X65045580Y-52458857D01*
X65308819Y-84193142D02*
X64832628Y-83859809D01*
X65308819Y-83621714D02*
X64308819Y-83621714D01*
X64308819Y-83621714D02*
X64308819Y-84002666D01*
X64308819Y-84002666D02*
X64356438Y-84097904D01*
X64356438Y-84097904D02*
X64404057Y-84145523D01*
X64404057Y-84145523D02*
X64499295Y-84193142D01*
X64499295Y-84193142D02*
X64642152Y-84193142D01*
X64642152Y-84193142D02*
X64737390Y-84145523D01*
X64737390Y-84145523D02*
X64785009Y-84097904D01*
X64785009Y-84097904D02*
X64832628Y-84002666D01*
X64832628Y-84002666D02*
X64832628Y-83621714D01*
X65308819Y-85145523D02*
X65308819Y-84574095D01*
X65308819Y-84859809D02*
X64308819Y-84859809D01*
X64308819Y-84859809D02*
X64451676Y-84764571D01*
X64451676Y-84764571D02*
X64546914Y-84669333D01*
X64546914Y-84669333D02*
X64594533Y-84574095D01*
X64308819Y-86050285D02*
X64308819Y-85574095D01*
X64308819Y-85574095D02*
X64785009Y-85526476D01*
X64785009Y-85526476D02*
X64737390Y-85574095D01*
X64737390Y-85574095D02*
X64689771Y-85669333D01*
X64689771Y-85669333D02*
X64689771Y-85907428D01*
X64689771Y-85907428D02*
X64737390Y-86002666D01*
X64737390Y-86002666D02*
X64785009Y-86050285D01*
X64785009Y-86050285D02*
X64880247Y-86097904D01*
X64880247Y-86097904D02*
X65118342Y-86097904D01*
X65118342Y-86097904D02*
X65213580Y-86050285D01*
X65213580Y-86050285D02*
X65261200Y-86002666D01*
X65261200Y-86002666D02*
X65308819Y-85907428D01*
X65308819Y-85907428D02*
X65308819Y-85669333D01*
X65308819Y-85669333D02*
X65261200Y-85574095D01*
X65261200Y-85574095D02*
X65213580Y-85526476D01*
X60179094Y-95808819D02*
X60179094Y-94808819D01*
X60179094Y-94808819D02*
X59940999Y-94808819D01*
X59940999Y-94808819D02*
X59798142Y-94856438D01*
X59798142Y-94856438D02*
X59702904Y-94951676D01*
X59702904Y-94951676D02*
X59655285Y-95046914D01*
X59655285Y-95046914D02*
X59607666Y-95237390D01*
X59607666Y-95237390D02*
X59607666Y-95380247D01*
X59607666Y-95380247D02*
X59655285Y-95570723D01*
X59655285Y-95570723D02*
X59702904Y-95665961D01*
X59702904Y-95665961D02*
X59798142Y-95761200D01*
X59798142Y-95761200D02*
X59940999Y-95808819D01*
X59940999Y-95808819D02*
X60179094Y-95808819D01*
X59226713Y-94904057D02*
X59179094Y-94856438D01*
X59179094Y-94856438D02*
X59083856Y-94808819D01*
X59083856Y-94808819D02*
X58845761Y-94808819D01*
X58845761Y-94808819D02*
X58750523Y-94856438D01*
X58750523Y-94856438D02*
X58702904Y-94904057D01*
X58702904Y-94904057D02*
X58655285Y-94999295D01*
X58655285Y-94999295D02*
X58655285Y-95094533D01*
X58655285Y-95094533D02*
X58702904Y-95237390D01*
X58702904Y-95237390D02*
X59274332Y-95808819D01*
X59274332Y-95808819D02*
X58655285Y-95808819D01*
X90659094Y-95808819D02*
X90659094Y-94808819D01*
X90659094Y-94808819D02*
X90420999Y-94808819D01*
X90420999Y-94808819D02*
X90278142Y-94856438D01*
X90278142Y-94856438D02*
X90182904Y-94951676D01*
X90182904Y-94951676D02*
X90135285Y-95046914D01*
X90135285Y-95046914D02*
X90087666Y-95237390D01*
X90087666Y-95237390D02*
X90087666Y-95380247D01*
X90087666Y-95380247D02*
X90135285Y-95570723D01*
X90135285Y-95570723D02*
X90182904Y-95665961D01*
X90182904Y-95665961D02*
X90278142Y-95761200D01*
X90278142Y-95761200D02*
X90420999Y-95808819D01*
X90420999Y-95808819D02*
X90659094Y-95808819D01*
X89135285Y-95808819D02*
X89706713Y-95808819D01*
X89420999Y-95808819D02*
X89420999Y-94808819D01*
X89420999Y-94808819D02*
X89516237Y-94951676D01*
X89516237Y-94951676D02*
X89611475Y-95046914D01*
X89611475Y-95046914D02*
X89706713Y-95094533D01*
X94487904Y-79508819D02*
X94487904Y-80318342D01*
X94487904Y-80318342D02*
X94440285Y-80413580D01*
X94440285Y-80413580D02*
X94392666Y-80461200D01*
X94392666Y-80461200D02*
X94297428Y-80508819D01*
X94297428Y-80508819D02*
X94106952Y-80508819D01*
X94106952Y-80508819D02*
X94011714Y-80461200D01*
X94011714Y-80461200D02*
X93964095Y-80413580D01*
X93964095Y-80413580D02*
X93916476Y-80318342D01*
X93916476Y-80318342D02*
X93916476Y-79508819D01*
X93535523Y-79508819D02*
X92916476Y-79508819D01*
X92916476Y-79508819D02*
X93249809Y-79889771D01*
X93249809Y-79889771D02*
X93106952Y-79889771D01*
X93106952Y-79889771D02*
X93011714Y-79937390D01*
X93011714Y-79937390D02*
X92964095Y-79985009D01*
X92964095Y-79985009D02*
X92916476Y-80080247D01*
X92916476Y-80080247D02*
X92916476Y-80318342D01*
X92916476Y-80318342D02*
X92964095Y-80413580D01*
X92964095Y-80413580D02*
X93011714Y-80461200D01*
X93011714Y-80461200D02*
X93106952Y-80508819D01*
X93106952Y-80508819D02*
X93392666Y-80508819D01*
X93392666Y-80508819D02*
X93487904Y-80461200D01*
X93487904Y-80461200D02*
X93535523Y-80413580D01*
X68188819Y-51173142D02*
X67712628Y-50839809D01*
X68188819Y-50601714D02*
X67188819Y-50601714D01*
X67188819Y-50601714D02*
X67188819Y-50982666D01*
X67188819Y-50982666D02*
X67236438Y-51077904D01*
X67236438Y-51077904D02*
X67284057Y-51125523D01*
X67284057Y-51125523D02*
X67379295Y-51173142D01*
X67379295Y-51173142D02*
X67522152Y-51173142D01*
X67522152Y-51173142D02*
X67617390Y-51125523D01*
X67617390Y-51125523D02*
X67665009Y-51077904D01*
X67665009Y-51077904D02*
X67712628Y-50982666D01*
X67712628Y-50982666D02*
X67712628Y-50601714D01*
X68188819Y-52125523D02*
X68188819Y-51554095D01*
X68188819Y-51839809D02*
X67188819Y-51839809D01*
X67188819Y-51839809D02*
X67331676Y-51744571D01*
X67331676Y-51744571D02*
X67426914Y-51649333D01*
X67426914Y-51649333D02*
X67474533Y-51554095D01*
X67284057Y-52506476D02*
X67236438Y-52554095D01*
X67236438Y-52554095D02*
X67188819Y-52649333D01*
X67188819Y-52649333D02*
X67188819Y-52887428D01*
X67188819Y-52887428D02*
X67236438Y-52982666D01*
X67236438Y-52982666D02*
X67284057Y-53030285D01*
X67284057Y-53030285D02*
X67379295Y-53077904D01*
X67379295Y-53077904D02*
X67474533Y-53077904D01*
X67474533Y-53077904D02*
X67617390Y-53030285D01*
X67617390Y-53030285D02*
X68188819Y-52458857D01*
X68188819Y-52458857D02*
X68188819Y-53077904D01*
X49392819Y-51649333D02*
X48916628Y-51316000D01*
X49392819Y-51077905D02*
X48392819Y-51077905D01*
X48392819Y-51077905D02*
X48392819Y-51458857D01*
X48392819Y-51458857D02*
X48440438Y-51554095D01*
X48440438Y-51554095D02*
X48488057Y-51601714D01*
X48488057Y-51601714D02*
X48583295Y-51649333D01*
X48583295Y-51649333D02*
X48726152Y-51649333D01*
X48726152Y-51649333D02*
X48821390Y-51601714D01*
X48821390Y-51601714D02*
X48869009Y-51554095D01*
X48869009Y-51554095D02*
X48916628Y-51458857D01*
X48916628Y-51458857D02*
X48916628Y-51077905D01*
X48392819Y-51982667D02*
X48392819Y-52649333D01*
X48392819Y-52649333D02*
X49392819Y-52220762D01*
X41147904Y-57068819D02*
X41147904Y-57878342D01*
X41147904Y-57878342D02*
X41100285Y-57973580D01*
X41100285Y-57973580D02*
X41052666Y-58021200D01*
X41052666Y-58021200D02*
X40957428Y-58068819D01*
X40957428Y-58068819D02*
X40766952Y-58068819D01*
X40766952Y-58068819D02*
X40671714Y-58021200D01*
X40671714Y-58021200D02*
X40624095Y-57973580D01*
X40624095Y-57973580D02*
X40576476Y-57878342D01*
X40576476Y-57878342D02*
X40576476Y-57068819D01*
X39576476Y-58068819D02*
X40147904Y-58068819D01*
X39862190Y-58068819D02*
X39862190Y-57068819D01*
X39862190Y-57068819D02*
X39957428Y-57211676D01*
X39957428Y-57211676D02*
X40052666Y-57306914D01*
X40052666Y-57306914D02*
X40147904Y-57354533D01*
X95821332Y-104166200D02*
X95678475Y-104213819D01*
X95678475Y-104213819D02*
X95440380Y-104213819D01*
X95440380Y-104213819D02*
X95345142Y-104166200D01*
X95345142Y-104166200D02*
X95297523Y-104118580D01*
X95297523Y-104118580D02*
X95249904Y-104023342D01*
X95249904Y-104023342D02*
X95249904Y-103928104D01*
X95249904Y-103928104D02*
X95297523Y-103832866D01*
X95297523Y-103832866D02*
X95345142Y-103785247D01*
X95345142Y-103785247D02*
X95440380Y-103737628D01*
X95440380Y-103737628D02*
X95630856Y-103690009D01*
X95630856Y-103690009D02*
X95726094Y-103642390D01*
X95726094Y-103642390D02*
X95773713Y-103594771D01*
X95773713Y-103594771D02*
X95821332Y-103499533D01*
X95821332Y-103499533D02*
X95821332Y-103404295D01*
X95821332Y-103404295D02*
X95773713Y-103309057D01*
X95773713Y-103309057D02*
X95726094Y-103261438D01*
X95726094Y-103261438D02*
X95630856Y-103213819D01*
X95630856Y-103213819D02*
X95392761Y-103213819D01*
X95392761Y-103213819D02*
X95249904Y-103261438D01*
X94916570Y-103213819D02*
X94678475Y-104213819D01*
X94678475Y-104213819D02*
X94487999Y-103499533D01*
X94487999Y-103499533D02*
X94297523Y-104213819D01*
X94297523Y-104213819D02*
X94059428Y-103213819D01*
X93154666Y-104213819D02*
X93726094Y-104213819D01*
X93440380Y-104213819D02*
X93440380Y-103213819D01*
X93440380Y-103213819D02*
X93535618Y-103356676D01*
X93535618Y-103356676D02*
X93630856Y-103451914D01*
X93630856Y-103451914D02*
X93726094Y-103499533D01*
X74842666Y-97058819D02*
X75175999Y-96582628D01*
X75414094Y-97058819D02*
X75414094Y-96058819D01*
X75414094Y-96058819D02*
X75033142Y-96058819D01*
X75033142Y-96058819D02*
X74937904Y-96106438D01*
X74937904Y-96106438D02*
X74890285Y-96154057D01*
X74890285Y-96154057D02*
X74842666Y-96249295D01*
X74842666Y-96249295D02*
X74842666Y-96392152D01*
X74842666Y-96392152D02*
X74890285Y-96487390D01*
X74890285Y-96487390D02*
X74937904Y-96535009D01*
X74937904Y-96535009D02*
X75033142Y-96582628D01*
X75033142Y-96582628D02*
X75414094Y-96582628D01*
X74509332Y-96058819D02*
X73890285Y-96058819D01*
X73890285Y-96058819D02*
X74223618Y-96439771D01*
X74223618Y-96439771D02*
X74080761Y-96439771D01*
X74080761Y-96439771D02*
X73985523Y-96487390D01*
X73985523Y-96487390D02*
X73937904Y-96535009D01*
X73937904Y-96535009D02*
X73890285Y-96630247D01*
X73890285Y-96630247D02*
X73890285Y-96868342D01*
X73890285Y-96868342D02*
X73937904Y-96963580D01*
X73937904Y-96963580D02*
X73985523Y-97011200D01*
X73985523Y-97011200D02*
X74080761Y-97058819D01*
X74080761Y-97058819D02*
X74366475Y-97058819D01*
X74366475Y-97058819D02*
X74461713Y-97011200D01*
X74461713Y-97011200D02*
X74509332Y-96963580D01*
X87152819Y-84193142D02*
X86676628Y-83859809D01*
X87152819Y-83621714D02*
X86152819Y-83621714D01*
X86152819Y-83621714D02*
X86152819Y-84002666D01*
X86152819Y-84002666D02*
X86200438Y-84097904D01*
X86200438Y-84097904D02*
X86248057Y-84145523D01*
X86248057Y-84145523D02*
X86343295Y-84193142D01*
X86343295Y-84193142D02*
X86486152Y-84193142D01*
X86486152Y-84193142D02*
X86581390Y-84145523D01*
X86581390Y-84145523D02*
X86629009Y-84097904D01*
X86629009Y-84097904D02*
X86676628Y-84002666D01*
X86676628Y-84002666D02*
X86676628Y-83621714D01*
X86248057Y-84574095D02*
X86200438Y-84621714D01*
X86200438Y-84621714D02*
X86152819Y-84716952D01*
X86152819Y-84716952D02*
X86152819Y-84955047D01*
X86152819Y-84955047D02*
X86200438Y-85050285D01*
X86200438Y-85050285D02*
X86248057Y-85097904D01*
X86248057Y-85097904D02*
X86343295Y-85145523D01*
X86343295Y-85145523D02*
X86438533Y-85145523D01*
X86438533Y-85145523D02*
X86581390Y-85097904D01*
X86581390Y-85097904D02*
X87152819Y-84526476D01*
X87152819Y-84526476D02*
X87152819Y-85145523D01*
X86152819Y-86050285D02*
X86152819Y-85574095D01*
X86152819Y-85574095D02*
X86629009Y-85526476D01*
X86629009Y-85526476D02*
X86581390Y-85574095D01*
X86581390Y-85574095D02*
X86533771Y-85669333D01*
X86533771Y-85669333D02*
X86533771Y-85907428D01*
X86533771Y-85907428D02*
X86581390Y-86002666D01*
X86581390Y-86002666D02*
X86629009Y-86050285D01*
X86629009Y-86050285D02*
X86724247Y-86097904D01*
X86724247Y-86097904D02*
X86962342Y-86097904D01*
X86962342Y-86097904D02*
X87057580Y-86050285D01*
X87057580Y-86050285D02*
X87105200Y-86002666D01*
X87105200Y-86002666D02*
X87152819Y-85907428D01*
X87152819Y-85907428D02*
X87152819Y-85669333D01*
X87152819Y-85669333D02*
X87105200Y-85574095D01*
X87105200Y-85574095D02*
X87057580Y-85526476D01*
X78492819Y-37592095D02*
X79302342Y-37592095D01*
X79302342Y-37592095D02*
X79397580Y-37639714D01*
X79397580Y-37639714D02*
X79445200Y-37687333D01*
X79445200Y-37687333D02*
X79492819Y-37782571D01*
X79492819Y-37782571D02*
X79492819Y-37973047D01*
X79492819Y-37973047D02*
X79445200Y-38068285D01*
X79445200Y-38068285D02*
X79397580Y-38115904D01*
X79397580Y-38115904D02*
X79302342Y-38163523D01*
X79302342Y-38163523D02*
X78492819Y-38163523D01*
X78588057Y-38592095D02*
X78540438Y-38639714D01*
X78540438Y-38639714D02*
X78492819Y-38734952D01*
X78492819Y-38734952D02*
X78492819Y-38973047D01*
X78492819Y-38973047D02*
X78540438Y-39068285D01*
X78540438Y-39068285D02*
X78588057Y-39115904D01*
X78588057Y-39115904D02*
X78683295Y-39163523D01*
X78683295Y-39163523D02*
X78778533Y-39163523D01*
X78778533Y-39163523D02*
X78921390Y-39115904D01*
X78921390Y-39115904D02*
X79492819Y-38544476D01*
X79492819Y-38544476D02*
X79492819Y-39163523D01*
X32845333Y-82214819D02*
X32845333Y-82929104D01*
X32845333Y-82929104D02*
X32892952Y-83071961D01*
X32892952Y-83071961D02*
X32988190Y-83167200D01*
X32988190Y-83167200D02*
X33131047Y-83214819D01*
X33131047Y-83214819D02*
X33226285Y-83214819D01*
X32464380Y-82214819D02*
X31845333Y-82214819D01*
X31845333Y-82214819D02*
X32178666Y-82595771D01*
X32178666Y-82595771D02*
X32035809Y-82595771D01*
X32035809Y-82595771D02*
X31940571Y-82643390D01*
X31940571Y-82643390D02*
X31892952Y-82691009D01*
X31892952Y-82691009D02*
X31845333Y-82786247D01*
X31845333Y-82786247D02*
X31845333Y-83024342D01*
X31845333Y-83024342D02*
X31892952Y-83119580D01*
X31892952Y-83119580D02*
X31940571Y-83167200D01*
X31940571Y-83167200D02*
X32035809Y-83214819D01*
X32035809Y-83214819D02*
X32321523Y-83214819D01*
X32321523Y-83214819D02*
X32416761Y-83167200D01*
X32416761Y-83167200D02*
X32464380Y-83119580D01*
X80888819Y-51173142D02*
X80412628Y-50839809D01*
X80888819Y-50601714D02*
X79888819Y-50601714D01*
X79888819Y-50601714D02*
X79888819Y-50982666D01*
X79888819Y-50982666D02*
X79936438Y-51077904D01*
X79936438Y-51077904D02*
X79984057Y-51125523D01*
X79984057Y-51125523D02*
X80079295Y-51173142D01*
X80079295Y-51173142D02*
X80222152Y-51173142D01*
X80222152Y-51173142D02*
X80317390Y-51125523D01*
X80317390Y-51125523D02*
X80365009Y-51077904D01*
X80365009Y-51077904D02*
X80412628Y-50982666D01*
X80412628Y-50982666D02*
X80412628Y-50601714D01*
X80888819Y-52125523D02*
X80888819Y-51554095D01*
X80888819Y-51839809D02*
X79888819Y-51839809D01*
X79888819Y-51839809D02*
X80031676Y-51744571D01*
X80031676Y-51744571D02*
X80126914Y-51649333D01*
X80126914Y-51649333D02*
X80174533Y-51554095D01*
X80888819Y-52601714D02*
X80888819Y-52792190D01*
X80888819Y-52792190D02*
X80841200Y-52887428D01*
X80841200Y-52887428D02*
X80793580Y-52935047D01*
X80793580Y-52935047D02*
X80650723Y-53030285D01*
X80650723Y-53030285D02*
X80460247Y-53077904D01*
X80460247Y-53077904D02*
X80079295Y-53077904D01*
X80079295Y-53077904D02*
X79984057Y-53030285D01*
X79984057Y-53030285D02*
X79936438Y-52982666D01*
X79936438Y-52982666D02*
X79888819Y-52887428D01*
X79888819Y-52887428D02*
X79888819Y-52696952D01*
X79888819Y-52696952D02*
X79936438Y-52601714D01*
X79936438Y-52601714D02*
X79984057Y-52554095D01*
X79984057Y-52554095D02*
X80079295Y-52506476D01*
X80079295Y-52506476D02*
X80317390Y-52506476D01*
X80317390Y-52506476D02*
X80412628Y-52554095D01*
X80412628Y-52554095D02*
X80460247Y-52601714D01*
X80460247Y-52601714D02*
X80507866Y-52696952D01*
X80507866Y-52696952D02*
X80507866Y-52887428D01*
X80507866Y-52887428D02*
X80460247Y-52982666D01*
X80460247Y-52982666D02*
X80412628Y-53030285D01*
X80412628Y-53030285D02*
X80317390Y-53077904D01*
X101425333Y-84754819D02*
X101425333Y-85469104D01*
X101425333Y-85469104D02*
X101472952Y-85611961D01*
X101472952Y-85611961D02*
X101568190Y-85707200D01*
X101568190Y-85707200D02*
X101711047Y-85754819D01*
X101711047Y-85754819D02*
X101806285Y-85754819D01*
X100996761Y-84850057D02*
X100949142Y-84802438D01*
X100949142Y-84802438D02*
X100853904Y-84754819D01*
X100853904Y-84754819D02*
X100615809Y-84754819D01*
X100615809Y-84754819D02*
X100520571Y-84802438D01*
X100520571Y-84802438D02*
X100472952Y-84850057D01*
X100472952Y-84850057D02*
X100425333Y-84945295D01*
X100425333Y-84945295D02*
X100425333Y-85040533D01*
X100425333Y-85040533D02*
X100472952Y-85183390D01*
X100472952Y-85183390D02*
X101044380Y-85754819D01*
X101044380Y-85754819D02*
X100425333Y-85754819D01*
X77840819Y-51173142D02*
X77364628Y-50839809D01*
X77840819Y-50601714D02*
X76840819Y-50601714D01*
X76840819Y-50601714D02*
X76840819Y-50982666D01*
X76840819Y-50982666D02*
X76888438Y-51077904D01*
X76888438Y-51077904D02*
X76936057Y-51125523D01*
X76936057Y-51125523D02*
X77031295Y-51173142D01*
X77031295Y-51173142D02*
X77174152Y-51173142D01*
X77174152Y-51173142D02*
X77269390Y-51125523D01*
X77269390Y-51125523D02*
X77317009Y-51077904D01*
X77317009Y-51077904D02*
X77364628Y-50982666D01*
X77364628Y-50982666D02*
X77364628Y-50601714D01*
X76936057Y-51554095D02*
X76888438Y-51601714D01*
X76888438Y-51601714D02*
X76840819Y-51696952D01*
X76840819Y-51696952D02*
X76840819Y-51935047D01*
X76840819Y-51935047D02*
X76888438Y-52030285D01*
X76888438Y-52030285D02*
X76936057Y-52077904D01*
X76936057Y-52077904D02*
X77031295Y-52125523D01*
X77031295Y-52125523D02*
X77126533Y-52125523D01*
X77126533Y-52125523D02*
X77269390Y-52077904D01*
X77269390Y-52077904D02*
X77840819Y-51506476D01*
X77840819Y-51506476D02*
X77840819Y-52125523D01*
X76840819Y-52744571D02*
X76840819Y-52839809D01*
X76840819Y-52839809D02*
X76888438Y-52935047D01*
X76888438Y-52935047D02*
X76936057Y-52982666D01*
X76936057Y-52982666D02*
X77031295Y-53030285D01*
X77031295Y-53030285D02*
X77221771Y-53077904D01*
X77221771Y-53077904D02*
X77459866Y-53077904D01*
X77459866Y-53077904D02*
X77650342Y-53030285D01*
X77650342Y-53030285D02*
X77745580Y-52982666D01*
X77745580Y-52982666D02*
X77793200Y-52935047D01*
X77793200Y-52935047D02*
X77840819Y-52839809D01*
X77840819Y-52839809D02*
X77840819Y-52744571D01*
X77840819Y-52744571D02*
X77793200Y-52649333D01*
X77793200Y-52649333D02*
X77745580Y-52601714D01*
X77745580Y-52601714D02*
X77650342Y-52554095D01*
X77650342Y-52554095D02*
X77459866Y-52506476D01*
X77459866Y-52506476D02*
X77221771Y-52506476D01*
X77221771Y-52506476D02*
X77031295Y-52554095D01*
X77031295Y-52554095D02*
X76936057Y-52601714D01*
X76936057Y-52601714D02*
X76888438Y-52649333D01*
X76888438Y-52649333D02*
X76840819Y-52744571D01*
X40957332Y-104166200D02*
X40814475Y-104213819D01*
X40814475Y-104213819D02*
X40576380Y-104213819D01*
X40576380Y-104213819D02*
X40481142Y-104166200D01*
X40481142Y-104166200D02*
X40433523Y-104118580D01*
X40433523Y-104118580D02*
X40385904Y-104023342D01*
X40385904Y-104023342D02*
X40385904Y-103928104D01*
X40385904Y-103928104D02*
X40433523Y-103832866D01*
X40433523Y-103832866D02*
X40481142Y-103785247D01*
X40481142Y-103785247D02*
X40576380Y-103737628D01*
X40576380Y-103737628D02*
X40766856Y-103690009D01*
X40766856Y-103690009D02*
X40862094Y-103642390D01*
X40862094Y-103642390D02*
X40909713Y-103594771D01*
X40909713Y-103594771D02*
X40957332Y-103499533D01*
X40957332Y-103499533D02*
X40957332Y-103404295D01*
X40957332Y-103404295D02*
X40909713Y-103309057D01*
X40909713Y-103309057D02*
X40862094Y-103261438D01*
X40862094Y-103261438D02*
X40766856Y-103213819D01*
X40766856Y-103213819D02*
X40528761Y-103213819D01*
X40528761Y-103213819D02*
X40385904Y-103261438D01*
X40052570Y-103213819D02*
X39814475Y-104213819D01*
X39814475Y-104213819D02*
X39623999Y-103499533D01*
X39623999Y-103499533D02*
X39433523Y-104213819D01*
X39433523Y-104213819D02*
X39195428Y-103213819D01*
X38338285Y-103213819D02*
X38814475Y-103213819D01*
X38814475Y-103213819D02*
X38862094Y-103690009D01*
X38862094Y-103690009D02*
X38814475Y-103642390D01*
X38814475Y-103642390D02*
X38719237Y-103594771D01*
X38719237Y-103594771D02*
X38481142Y-103594771D01*
X38481142Y-103594771D02*
X38385904Y-103642390D01*
X38385904Y-103642390D02*
X38338285Y-103690009D01*
X38338285Y-103690009D02*
X38290666Y-103785247D01*
X38290666Y-103785247D02*
X38290666Y-104023342D01*
X38290666Y-104023342D02*
X38338285Y-104118580D01*
X38338285Y-104118580D02*
X38385904Y-104166200D01*
X38385904Y-104166200D02*
X38481142Y-104213819D01*
X38481142Y-104213819D02*
X38719237Y-104213819D01*
X38719237Y-104213819D02*
X38814475Y-104166200D01*
X38814475Y-104166200D02*
X38862094Y-104118580D01*
X75419094Y-95808819D02*
X75419094Y-94808819D01*
X75419094Y-94808819D02*
X75180999Y-94808819D01*
X75180999Y-94808819D02*
X75038142Y-94856438D01*
X75038142Y-94856438D02*
X74942904Y-94951676D01*
X74942904Y-94951676D02*
X74895285Y-95046914D01*
X74895285Y-95046914D02*
X74847666Y-95237390D01*
X74847666Y-95237390D02*
X74847666Y-95380247D01*
X74847666Y-95380247D02*
X74895285Y-95570723D01*
X74895285Y-95570723D02*
X74942904Y-95665961D01*
X74942904Y-95665961D02*
X75038142Y-95761200D01*
X75038142Y-95761200D02*
X75180999Y-95808819D01*
X75180999Y-95808819D02*
X75419094Y-95808819D01*
X74514332Y-94808819D02*
X73895285Y-94808819D01*
X73895285Y-94808819D02*
X74228618Y-95189771D01*
X74228618Y-95189771D02*
X74085761Y-95189771D01*
X74085761Y-95189771D02*
X73990523Y-95237390D01*
X73990523Y-95237390D02*
X73942904Y-95285009D01*
X73942904Y-95285009D02*
X73895285Y-95380247D01*
X73895285Y-95380247D02*
X73895285Y-95618342D01*
X73895285Y-95618342D02*
X73942904Y-95713580D01*
X73942904Y-95713580D02*
X73990523Y-95761200D01*
X73990523Y-95761200D02*
X74085761Y-95808819D01*
X74085761Y-95808819D02*
X74371475Y-95808819D01*
X74371475Y-95808819D02*
X74466713Y-95761200D01*
X74466713Y-95761200D02*
X74514332Y-95713580D01*
X41481333Y-82214819D02*
X41481333Y-82929104D01*
X41481333Y-82929104D02*
X41528952Y-83071961D01*
X41528952Y-83071961D02*
X41624190Y-83167200D01*
X41624190Y-83167200D02*
X41767047Y-83214819D01*
X41767047Y-83214819D02*
X41862285Y-83214819D01*
X40481333Y-83214819D02*
X41052761Y-83214819D01*
X40767047Y-83214819D02*
X40767047Y-82214819D01*
X40767047Y-82214819D02*
X40862285Y-82357676D01*
X40862285Y-82357676D02*
X40957523Y-82452914D01*
X40957523Y-82452914D02*
X41052761Y-82500533D01*
X62092819Y-51173142D02*
X61616628Y-50839809D01*
X62092819Y-50601714D02*
X61092819Y-50601714D01*
X61092819Y-50601714D02*
X61092819Y-50982666D01*
X61092819Y-50982666D02*
X61140438Y-51077904D01*
X61140438Y-51077904D02*
X61188057Y-51125523D01*
X61188057Y-51125523D02*
X61283295Y-51173142D01*
X61283295Y-51173142D02*
X61426152Y-51173142D01*
X61426152Y-51173142D02*
X61521390Y-51125523D01*
X61521390Y-51125523D02*
X61569009Y-51077904D01*
X61569009Y-51077904D02*
X61616628Y-50982666D01*
X61616628Y-50982666D02*
X61616628Y-50601714D01*
X62092819Y-52125523D02*
X62092819Y-51554095D01*
X62092819Y-51839809D02*
X61092819Y-51839809D01*
X61092819Y-51839809D02*
X61235676Y-51744571D01*
X61235676Y-51744571D02*
X61330914Y-51649333D01*
X61330914Y-51649333D02*
X61378533Y-51554095D01*
X61426152Y-52982666D02*
X62092819Y-52982666D01*
X61045200Y-52744571D02*
X61759485Y-52506476D01*
X61759485Y-52506476D02*
X61759485Y-53125523D01*
X68356819Y-84193142D02*
X67880628Y-83859809D01*
X68356819Y-83621714D02*
X67356819Y-83621714D01*
X67356819Y-83621714D02*
X67356819Y-84002666D01*
X67356819Y-84002666D02*
X67404438Y-84097904D01*
X67404438Y-84097904D02*
X67452057Y-84145523D01*
X67452057Y-84145523D02*
X67547295Y-84193142D01*
X67547295Y-84193142D02*
X67690152Y-84193142D01*
X67690152Y-84193142D02*
X67785390Y-84145523D01*
X67785390Y-84145523D02*
X67833009Y-84097904D01*
X67833009Y-84097904D02*
X67880628Y-84002666D01*
X67880628Y-84002666D02*
X67880628Y-83621714D01*
X68356819Y-85145523D02*
X68356819Y-84574095D01*
X68356819Y-84859809D02*
X67356819Y-84859809D01*
X67356819Y-84859809D02*
X67499676Y-84764571D01*
X67499676Y-84764571D02*
X67594914Y-84669333D01*
X67594914Y-84669333D02*
X67642533Y-84574095D01*
X67356819Y-86002666D02*
X67356819Y-85812190D01*
X67356819Y-85812190D02*
X67404438Y-85716952D01*
X67404438Y-85716952D02*
X67452057Y-85669333D01*
X67452057Y-85669333D02*
X67594914Y-85574095D01*
X67594914Y-85574095D02*
X67785390Y-85526476D01*
X67785390Y-85526476D02*
X68166342Y-85526476D01*
X68166342Y-85526476D02*
X68261580Y-85574095D01*
X68261580Y-85574095D02*
X68309200Y-85621714D01*
X68309200Y-85621714D02*
X68356819Y-85716952D01*
X68356819Y-85716952D02*
X68356819Y-85907428D01*
X68356819Y-85907428D02*
X68309200Y-86002666D01*
X68309200Y-86002666D02*
X68261580Y-86050285D01*
X68261580Y-86050285D02*
X68166342Y-86097904D01*
X68166342Y-86097904D02*
X67928247Y-86097904D01*
X67928247Y-86097904D02*
X67833009Y-86050285D01*
X67833009Y-86050285D02*
X67785390Y-86002666D01*
X67785390Y-86002666D02*
X67737771Y-85907428D01*
X67737771Y-85907428D02*
X67737771Y-85716952D01*
X67737771Y-85716952D02*
X67785390Y-85621714D01*
X67785390Y-85621714D02*
X67833009Y-85574095D01*
X67833009Y-85574095D02*
X67928247Y-85526476D01*
X55656819Y-84669333D02*
X55180628Y-84336000D01*
X55656819Y-84097905D02*
X54656819Y-84097905D01*
X54656819Y-84097905D02*
X54656819Y-84478857D01*
X54656819Y-84478857D02*
X54704438Y-84574095D01*
X54704438Y-84574095D02*
X54752057Y-84621714D01*
X54752057Y-84621714D02*
X54847295Y-84669333D01*
X54847295Y-84669333D02*
X54990152Y-84669333D01*
X54990152Y-84669333D02*
X55085390Y-84621714D01*
X55085390Y-84621714D02*
X55133009Y-84574095D01*
X55133009Y-84574095D02*
X55180628Y-84478857D01*
X55180628Y-84478857D02*
X55180628Y-84097905D01*
X55656819Y-85145524D02*
X55656819Y-85336000D01*
X55656819Y-85336000D02*
X55609200Y-85431238D01*
X55609200Y-85431238D02*
X55561580Y-85478857D01*
X55561580Y-85478857D02*
X55418723Y-85574095D01*
X55418723Y-85574095D02*
X55228247Y-85621714D01*
X55228247Y-85621714D02*
X54847295Y-85621714D01*
X54847295Y-85621714D02*
X54752057Y-85574095D01*
X54752057Y-85574095D02*
X54704438Y-85526476D01*
X54704438Y-85526476D02*
X54656819Y-85431238D01*
X54656819Y-85431238D02*
X54656819Y-85240762D01*
X54656819Y-85240762D02*
X54704438Y-85145524D01*
X54704438Y-85145524D02*
X54752057Y-85097905D01*
X54752057Y-85097905D02*
X54847295Y-85050286D01*
X54847295Y-85050286D02*
X55085390Y-85050286D01*
X55085390Y-85050286D02*
X55180628Y-85097905D01*
X55180628Y-85097905D02*
X55228247Y-85145524D01*
X55228247Y-85145524D02*
X55275866Y-85240762D01*
X55275866Y-85240762D02*
X55275866Y-85431238D01*
X55275866Y-85431238D02*
X55228247Y-85526476D01*
X55228247Y-85526476D02*
X55180628Y-85574095D01*
X55180628Y-85574095D02*
X55085390Y-85621714D01*
X71404819Y-84193142D02*
X70928628Y-83859809D01*
X71404819Y-83621714D02*
X70404819Y-83621714D01*
X70404819Y-83621714D02*
X70404819Y-84002666D01*
X70404819Y-84002666D02*
X70452438Y-84097904D01*
X70452438Y-84097904D02*
X70500057Y-84145523D01*
X70500057Y-84145523D02*
X70595295Y-84193142D01*
X70595295Y-84193142D02*
X70738152Y-84193142D01*
X70738152Y-84193142D02*
X70833390Y-84145523D01*
X70833390Y-84145523D02*
X70881009Y-84097904D01*
X70881009Y-84097904D02*
X70928628Y-84002666D01*
X70928628Y-84002666D02*
X70928628Y-83621714D01*
X71404819Y-85145523D02*
X71404819Y-84574095D01*
X71404819Y-84859809D02*
X70404819Y-84859809D01*
X70404819Y-84859809D02*
X70547676Y-84764571D01*
X70547676Y-84764571D02*
X70642914Y-84669333D01*
X70642914Y-84669333D02*
X70690533Y-84574095D01*
X70404819Y-85478857D02*
X70404819Y-86145523D01*
X70404819Y-86145523D02*
X71404819Y-85716952D01*
X78008819Y-84193142D02*
X77532628Y-83859809D01*
X78008819Y-83621714D02*
X77008819Y-83621714D01*
X77008819Y-83621714D02*
X77008819Y-84002666D01*
X77008819Y-84002666D02*
X77056438Y-84097904D01*
X77056438Y-84097904D02*
X77104057Y-84145523D01*
X77104057Y-84145523D02*
X77199295Y-84193142D01*
X77199295Y-84193142D02*
X77342152Y-84193142D01*
X77342152Y-84193142D02*
X77437390Y-84145523D01*
X77437390Y-84145523D02*
X77485009Y-84097904D01*
X77485009Y-84097904D02*
X77532628Y-84002666D01*
X77532628Y-84002666D02*
X77532628Y-83621714D01*
X77104057Y-84574095D02*
X77056438Y-84621714D01*
X77056438Y-84621714D02*
X77008819Y-84716952D01*
X77008819Y-84716952D02*
X77008819Y-84955047D01*
X77008819Y-84955047D02*
X77056438Y-85050285D01*
X77056438Y-85050285D02*
X77104057Y-85097904D01*
X77104057Y-85097904D02*
X77199295Y-85145523D01*
X77199295Y-85145523D02*
X77294533Y-85145523D01*
X77294533Y-85145523D02*
X77437390Y-85097904D01*
X77437390Y-85097904D02*
X78008819Y-84526476D01*
X78008819Y-84526476D02*
X78008819Y-85145523D01*
X77104057Y-85526476D02*
X77056438Y-85574095D01*
X77056438Y-85574095D02*
X77008819Y-85669333D01*
X77008819Y-85669333D02*
X77008819Y-85907428D01*
X77008819Y-85907428D02*
X77056438Y-86002666D01*
X77056438Y-86002666D02*
X77104057Y-86050285D01*
X77104057Y-86050285D02*
X77199295Y-86097904D01*
X77199295Y-86097904D02*
X77294533Y-86097904D01*
X77294533Y-86097904D02*
X77437390Y-86050285D01*
X77437390Y-86050285D02*
X78008819Y-85478857D01*
X78008819Y-85478857D02*
X78008819Y-86097904D01*
X84104819Y-84193142D02*
X83628628Y-83859809D01*
X84104819Y-83621714D02*
X83104819Y-83621714D01*
X83104819Y-83621714D02*
X83104819Y-84002666D01*
X83104819Y-84002666D02*
X83152438Y-84097904D01*
X83152438Y-84097904D02*
X83200057Y-84145523D01*
X83200057Y-84145523D02*
X83295295Y-84193142D01*
X83295295Y-84193142D02*
X83438152Y-84193142D01*
X83438152Y-84193142D02*
X83533390Y-84145523D01*
X83533390Y-84145523D02*
X83581009Y-84097904D01*
X83581009Y-84097904D02*
X83628628Y-84002666D01*
X83628628Y-84002666D02*
X83628628Y-83621714D01*
X83200057Y-84574095D02*
X83152438Y-84621714D01*
X83152438Y-84621714D02*
X83104819Y-84716952D01*
X83104819Y-84716952D02*
X83104819Y-84955047D01*
X83104819Y-84955047D02*
X83152438Y-85050285D01*
X83152438Y-85050285D02*
X83200057Y-85097904D01*
X83200057Y-85097904D02*
X83295295Y-85145523D01*
X83295295Y-85145523D02*
X83390533Y-85145523D01*
X83390533Y-85145523D02*
X83533390Y-85097904D01*
X83533390Y-85097904D02*
X84104819Y-84526476D01*
X84104819Y-84526476D02*
X84104819Y-85145523D01*
X83438152Y-86002666D02*
X84104819Y-86002666D01*
X83057200Y-85764571D02*
X83771485Y-85526476D01*
X83771485Y-85526476D02*
X83771485Y-86145523D01*
X90082666Y-97058819D02*
X90415999Y-96582628D01*
X90654094Y-97058819D02*
X90654094Y-96058819D01*
X90654094Y-96058819D02*
X90273142Y-96058819D01*
X90273142Y-96058819D02*
X90177904Y-96106438D01*
X90177904Y-96106438D02*
X90130285Y-96154057D01*
X90130285Y-96154057D02*
X90082666Y-96249295D01*
X90082666Y-96249295D02*
X90082666Y-96392152D01*
X90082666Y-96392152D02*
X90130285Y-96487390D01*
X90130285Y-96487390D02*
X90177904Y-96535009D01*
X90177904Y-96535009D02*
X90273142Y-96582628D01*
X90273142Y-96582628D02*
X90654094Y-96582628D01*
X89130285Y-97058819D02*
X89701713Y-97058819D01*
X89415999Y-97058819D02*
X89415999Y-96058819D01*
X89415999Y-96058819D02*
X89511237Y-96201676D01*
X89511237Y-96201676D02*
X89606475Y-96296914D01*
X89606475Y-96296914D02*
X89701713Y-96344533D01*
D12*
%TO.C,R4*%
X47466000Y-94234000D02*
X48236000Y-94234000D01*
X47466000Y-95604000D02*
X47466000Y-92864000D01*
X40926000Y-95604000D02*
X47466000Y-95604000D01*
X47466000Y-92864000D02*
X40926000Y-92864000D01*
X40926000Y-92864000D02*
X40926000Y-95604000D01*
X40926000Y-94234000D02*
X40156000Y-94234000D01*
%TO.C,R11*%
X60298000Y-88106000D02*
X60298000Y-81566000D01*
X57558000Y-88106000D02*
X60298000Y-88106000D01*
X58928000Y-81566000D02*
X58928000Y-80796000D01*
X58928000Y-88106000D02*
X58928000Y-88876000D01*
X60298000Y-81566000D02*
X57558000Y-81566000D01*
X57558000Y-81566000D02*
X57558000Y-88106000D01*
%TO.C,U5*%
X73466000Y-62865000D02*
X73466000Y-74295000D01*
X60756000Y-78215000D02*
X72356000Y-78215000D01*
X65056000Y-73580000D02*
X72056000Y-73580000D01*
X72056000Y-73580000D02*
X71056000Y-68580000D01*
X71056000Y-68580000D02*
X70056000Y-63580000D01*
X63056000Y-63580000D02*
X70056000Y-63580000D01*
X64056000Y-68580000D02*
X65056000Y-73580000D01*
X71056000Y-68580000D02*
X64056000Y-68580000D01*
X64056000Y-68580000D02*
X63056000Y-63580000D01*
X73356000Y-58945000D02*
X60756000Y-58945000D01*
X60646000Y-62865000D02*
X60646000Y-74295000D01*
X63503214Y-73580000D02*
G75*
G02*
X62608786Y-73580000I-447214J0D01*
G01*
X62608786Y-73580000D02*
G75*
G02*
X63503214Y-73580000I447214J0D01*
G01*
%TO.C,U6*%
X86166000Y-62865000D02*
X86166000Y-74295000D01*
X73456000Y-78215000D02*
X85056000Y-78215000D01*
X77756000Y-73580000D02*
X84756000Y-73580000D01*
X84756000Y-73580000D02*
X83756000Y-68580000D01*
X83756000Y-68580000D02*
X82756000Y-63580000D01*
X75756000Y-63580000D02*
X82756000Y-63580000D01*
X76756000Y-68580000D02*
X77756000Y-73580000D01*
X83756000Y-68580000D02*
X76756000Y-68580000D01*
X76756000Y-68580000D02*
X75756000Y-63580000D01*
X86056000Y-58945000D02*
X73456000Y-58945000D01*
X73346000Y-62865000D02*
X73346000Y-74295000D01*
X76203214Y-73580000D02*
G75*
G02*
X75308786Y-73580000I-447214J0D01*
G01*
X75308786Y-73580000D02*
G75*
G02*
X76203214Y-73580000I447214J0D01*
G01*
%TO.C,R10*%
X57250000Y-88106000D02*
X57250000Y-81566000D01*
X54510000Y-88106000D02*
X57250000Y-88106000D01*
X55880000Y-81566000D02*
X55880000Y-80796000D01*
X55880000Y-88106000D02*
X55880000Y-88876000D01*
X57250000Y-81566000D02*
X54510000Y-81566000D01*
X54510000Y-81566000D02*
X54510000Y-88106000D01*
D10*
%TO.C,SW3*%
X101400000Y-31804000D02*
X101400000Y-32804000D01*
X101400000Y-44804000D02*
X101400000Y-45804000D01*
X100400000Y-45804000D02*
X101400000Y-45804000D01*
X101400000Y-31804000D02*
X100400000Y-31804000D01*
X87400000Y-45804000D02*
X88400000Y-45804000D01*
X88400000Y-31804000D02*
X87400000Y-31804000D01*
X87400000Y-32804000D02*
X87400000Y-31804000D01*
X87400000Y-45804000D02*
X87400000Y-44804000D01*
D12*
%TO.C,J4*%
X33020000Y-63699000D02*
X34350000Y-63699000D01*
X34350000Y-63699000D02*
X34350000Y-65029000D01*
X34350000Y-76519000D02*
X34350000Y-66299000D01*
X31690000Y-66299000D02*
X34350000Y-66299000D01*
X31690000Y-76519000D02*
X34350000Y-76519000D01*
X31690000Y-76519000D02*
X31690000Y-66299000D01*
%TO.C,R23*%
X79602000Y-88106000D02*
X79602000Y-81566000D01*
X76862000Y-88106000D02*
X79602000Y-88106000D01*
X78232000Y-81566000D02*
X78232000Y-80796000D01*
X78232000Y-88106000D02*
X78232000Y-88876000D01*
X79602000Y-81566000D02*
X76862000Y-81566000D01*
X76862000Y-81566000D02*
X76862000Y-88106000D01*
%TO.C,D4*%
X46761000Y-100859000D02*
X46761000Y-97769000D01*
X41211000Y-99313952D02*
G75*
G02*
X46761000Y-97769170I2990000J-48D01*
G01*
X46761000Y-100858830D02*
G75*
G02*
X41211000Y-99314048I-2560000J1544830D01*
G01*
X46701000Y-99314000D02*
G75*
G02*
X41701000Y-99314000I-2500000J0D01*
G01*
X41701000Y-99314000D02*
G75*
G02*
X46701000Y-99314000I2500000J0D01*
G01*
%TO.C,U4*%
X60766000Y-62865000D02*
X60766000Y-74295000D01*
X48056000Y-78215000D02*
X59656000Y-78215000D01*
X52356000Y-73580000D02*
X59356000Y-73580000D01*
X59356000Y-73580000D02*
X58356000Y-68580000D01*
X58356000Y-68580000D02*
X57356000Y-63580000D01*
X50356000Y-63580000D02*
X57356000Y-63580000D01*
X51356000Y-68580000D02*
X52356000Y-73580000D01*
X58356000Y-68580000D02*
X51356000Y-68580000D01*
X51356000Y-68580000D02*
X50356000Y-63580000D01*
X60656000Y-58945000D02*
X48056000Y-58945000D01*
X47946000Y-62865000D02*
X47946000Y-74295000D01*
X50803214Y-73580000D02*
G75*
G02*
X49908786Y-73580000I-447214J0D01*
G01*
X49908786Y-73580000D02*
G75*
G02*
X50803214Y-73580000I447214J0D01*
G01*
%TO.C,R2*%
X62706000Y-94234000D02*
X63476000Y-94234000D01*
X62706000Y-95604000D02*
X62706000Y-92864000D01*
X56166000Y-95604000D02*
X62706000Y-95604000D01*
X62706000Y-92864000D02*
X56166000Y-92864000D01*
X56166000Y-92864000D02*
X56166000Y-95604000D01*
X56166000Y-94234000D02*
X55396000Y-94234000D01*
%TO.C,R5*%
X58774000Y-55086000D02*
X58774000Y-48546000D01*
X56034000Y-55086000D02*
X58774000Y-55086000D01*
X57404000Y-48546000D02*
X57404000Y-47776000D01*
X57404000Y-55086000D02*
X57404000Y-55856000D01*
X58774000Y-48546000D02*
X56034000Y-48546000D01*
X56034000Y-48546000D02*
X56034000Y-55086000D01*
D10*
%TO.C,SW2*%
X64912000Y-105014000D02*
X64912000Y-106014000D01*
X64912000Y-118014000D02*
X64912000Y-119014000D01*
X63912000Y-119014000D02*
X64912000Y-119014000D01*
X64912000Y-105014000D02*
X63912000Y-105014000D01*
X50912000Y-119014000D02*
X51912000Y-119014000D01*
X51912000Y-105014000D02*
X50912000Y-105014000D01*
X50912000Y-106014000D02*
X50912000Y-105014000D01*
X50912000Y-119014000D02*
X50912000Y-118014000D01*
D12*
%TO.C,R6*%
X55726000Y-55086000D02*
X55726000Y-48546000D01*
X52986000Y-55086000D02*
X55726000Y-55086000D01*
X54356000Y-48546000D02*
X54356000Y-47776000D01*
X54356000Y-55086000D02*
X54356000Y-55856000D01*
X55726000Y-48546000D02*
X52986000Y-48546000D01*
X52986000Y-48546000D02*
X52986000Y-55086000D01*
%TO.C,R21*%
X78078000Y-55086000D02*
X78078000Y-48546000D01*
X75338000Y-55086000D02*
X78078000Y-55086000D01*
X76708000Y-48546000D02*
X76708000Y-47776000D01*
X76708000Y-55086000D02*
X76708000Y-55856000D01*
X78078000Y-48546000D02*
X75338000Y-48546000D01*
X75338000Y-48546000D02*
X75338000Y-55086000D01*
%TO.C,R18*%
X72998000Y-88106000D02*
X72998000Y-81566000D01*
X70258000Y-88106000D02*
X72998000Y-88106000D01*
X71628000Y-81566000D02*
X71628000Y-80796000D01*
X71628000Y-88106000D02*
X71628000Y-88876000D01*
X72998000Y-81566000D02*
X70258000Y-81566000D01*
X70258000Y-81566000D02*
X70258000Y-88106000D01*
%TO.C,R8*%
X51154000Y-88106000D02*
X51154000Y-81566000D01*
X48414000Y-88106000D02*
X51154000Y-88106000D01*
X49784000Y-81566000D02*
X49784000Y-80796000D01*
X49784000Y-88106000D02*
X49784000Y-88876000D01*
X51154000Y-81566000D02*
X48414000Y-81566000D01*
X48414000Y-81566000D02*
X48414000Y-88106000D01*
D10*
%TO.C,SW4*%
X83200000Y-105014000D02*
X83200000Y-106014000D01*
X83200000Y-118014000D02*
X83200000Y-119014000D01*
X82200000Y-119014000D02*
X83200000Y-119014000D01*
X83200000Y-105014000D02*
X82200000Y-105014000D01*
X69200000Y-119014000D02*
X70200000Y-119014000D01*
X70200000Y-105014000D02*
X69200000Y-105014000D01*
X69200000Y-106014000D02*
X69200000Y-105014000D01*
X69200000Y-119014000D02*
X69200000Y-118014000D01*
D12*
%TO.C,R13*%
X68426000Y-55086000D02*
X68426000Y-48546000D01*
X65686000Y-55086000D02*
X68426000Y-55086000D01*
X67056000Y-48546000D02*
X67056000Y-47776000D01*
X67056000Y-55086000D02*
X67056000Y-55856000D01*
X68426000Y-48546000D02*
X65686000Y-48546000D01*
X65686000Y-48546000D02*
X65686000Y-55086000D01*
%TO.C,R15*%
X63854000Y-88106000D02*
X63854000Y-81566000D01*
X61114000Y-88106000D02*
X63854000Y-88106000D01*
X62484000Y-81566000D02*
X62484000Y-80796000D01*
X62484000Y-88106000D02*
X62484000Y-88876000D01*
X63854000Y-81566000D02*
X61114000Y-81566000D01*
X61114000Y-81566000D02*
X61114000Y-88106000D01*
%TO.C,D2*%
X62001000Y-100859000D02*
X62001000Y-97769000D01*
X56451000Y-99313952D02*
G75*
G02*
X62001000Y-97769170I2990000J-48D01*
G01*
X62001000Y-100858830D02*
G75*
G02*
X56451000Y-99314048I-2560000J1544830D01*
G01*
X61941000Y-99314000D02*
G75*
G02*
X56941000Y-99314000I-2500000J0D01*
G01*
X56941000Y-99314000D02*
G75*
G02*
X61941000Y-99314000I2500000J0D01*
G01*
%TO.C,D1*%
X92481000Y-100859000D02*
X92481000Y-97769000D01*
X86931000Y-99313952D02*
G75*
G02*
X92481000Y-97769170I2990000J-48D01*
G01*
X92481000Y-100858830D02*
G75*
G02*
X86931000Y-99314048I-2560000J1544830D01*
G01*
X92421000Y-99314000D02*
G75*
G02*
X87421000Y-99314000I-2500000J0D01*
G01*
X87421000Y-99314000D02*
G75*
G02*
X92421000Y-99314000I2500000J0D01*
G01*
%TO.C,U3*%
X98976000Y-79114000D02*
X98976000Y-58554000D01*
X88476000Y-79114000D02*
X98976000Y-79114000D01*
X95976000Y-79054000D02*
X95976000Y-58614000D01*
X94726000Y-79054000D02*
X95976000Y-79054000D01*
X91476000Y-79054000D02*
X92726000Y-79054000D01*
X95976000Y-58614000D02*
X91476000Y-58614000D01*
X91476000Y-58614000D02*
X91476000Y-79054000D01*
X98976000Y-58554000D02*
X88476000Y-58554000D01*
X88476000Y-58554000D02*
X88476000Y-79114000D01*
X92726000Y-79054000D02*
G75*
G02*
X94726000Y-79054000I1000000J0D01*
G01*
%TO.C,R12*%
X71474000Y-55086000D02*
X71474000Y-48546000D01*
X68734000Y-55086000D02*
X71474000Y-55086000D01*
X70104000Y-48546000D02*
X70104000Y-47776000D01*
X70104000Y-55086000D02*
X70104000Y-55856000D01*
X71474000Y-48546000D02*
X68734000Y-48546000D01*
X68734000Y-48546000D02*
X68734000Y-55086000D01*
%TO.C,R7*%
X52678000Y-55086000D02*
X52678000Y-48546000D01*
X49938000Y-55086000D02*
X52678000Y-55086000D01*
X51308000Y-48546000D02*
X51308000Y-47776000D01*
X51308000Y-55086000D02*
X51308000Y-55856000D01*
X52678000Y-48546000D02*
X49938000Y-48546000D01*
X49938000Y-48546000D02*
X49938000Y-55086000D01*
%TO.C,U1*%
X45636000Y-79114000D02*
X45636000Y-58554000D01*
X35136000Y-79114000D02*
X45636000Y-79114000D01*
X42636000Y-79054000D02*
X42636000Y-58614000D01*
X38136000Y-79054000D02*
X42636000Y-79054000D01*
X42636000Y-58614000D02*
X41386000Y-58614000D01*
X39386000Y-58614000D02*
X38136000Y-58614000D01*
X38136000Y-58614000D02*
X38136000Y-79054000D01*
X45636000Y-58554000D02*
X35136000Y-58554000D01*
X35136000Y-58554000D02*
X35136000Y-79114000D01*
X41386000Y-58614000D02*
G75*
G02*
X39386000Y-58614000I-1000000J0D01*
G01*
D10*
%TO.C,SW1*%
X101488000Y-105014000D02*
X101488000Y-106014000D01*
X101488000Y-118014000D02*
X101488000Y-119014000D01*
X100488000Y-119014000D02*
X101488000Y-119014000D01*
X101488000Y-105014000D02*
X100488000Y-105014000D01*
X87488000Y-119014000D02*
X88488000Y-119014000D01*
X88488000Y-105014000D02*
X87488000Y-105014000D01*
X87488000Y-106014000D02*
X87488000Y-105014000D01*
X87488000Y-119014000D02*
X87488000Y-118014000D01*
D12*
%TO.C,R3*%
X77946000Y-94234000D02*
X78716000Y-94234000D01*
X77946000Y-95604000D02*
X77946000Y-92864000D01*
X71406000Y-95604000D02*
X77946000Y-95604000D01*
X77946000Y-92864000D02*
X71406000Y-92864000D01*
X71406000Y-92864000D02*
X71406000Y-95604000D01*
X71406000Y-94234000D02*
X70636000Y-94234000D01*
%TO.C,R25*%
X85698000Y-88106000D02*
X85698000Y-81566000D01*
X82958000Y-88106000D02*
X85698000Y-88106000D01*
X84328000Y-81566000D02*
X84328000Y-80796000D01*
X84328000Y-88106000D02*
X84328000Y-88876000D01*
X85698000Y-81566000D02*
X82958000Y-81566000D01*
X82958000Y-81566000D02*
X82958000Y-88106000D01*
%TO.C,U2*%
X78098000Y-43604000D02*
X78098000Y-33104000D01*
X57538000Y-43604000D02*
X78098000Y-43604000D01*
X78038000Y-37354000D02*
X78038000Y-36104000D01*
X78038000Y-40604000D02*
X78038000Y-39354000D01*
X57598000Y-40604000D02*
X78038000Y-40604000D01*
X78038000Y-36104000D02*
X57598000Y-36104000D01*
X57598000Y-36104000D02*
X57598000Y-40604000D01*
X78098000Y-33104000D02*
X57538000Y-33104000D01*
X57538000Y-33104000D02*
X57538000Y-43604000D01*
X78038000Y-39354000D02*
G75*
G02*
X78038000Y-37354000I0J1000000D01*
G01*
%TO.C,J3*%
X31182000Y-99120000D02*
X31182000Y-86360000D01*
X31182000Y-99120000D02*
X33842000Y-99120000D01*
X31182000Y-86360000D02*
X33842000Y-86360000D01*
X33842000Y-99120000D02*
X33842000Y-86360000D01*
X33842000Y-83760000D02*
X33842000Y-85090000D01*
X32512000Y-83760000D02*
X33842000Y-83760000D01*
%TO.C,R19*%
X84174000Y-55086000D02*
X84174000Y-48546000D01*
X81434000Y-55086000D02*
X84174000Y-55086000D01*
X82804000Y-48546000D02*
X82804000Y-47776000D01*
X82804000Y-55086000D02*
X82804000Y-55856000D01*
X84174000Y-48546000D02*
X81434000Y-48546000D01*
X81434000Y-48546000D02*
X81434000Y-55086000D01*
%TO.C,J2*%
X101092000Y-86300000D02*
X102422000Y-86300000D01*
X102422000Y-86300000D02*
X102422000Y-87630000D01*
X102422000Y-96580000D02*
X102422000Y-88900000D01*
X99762000Y-88900000D02*
X102422000Y-88900000D01*
X99762000Y-96580000D02*
X102422000Y-96580000D01*
X99762000Y-96580000D02*
X99762000Y-88900000D01*
%TO.C,R20*%
X81126000Y-55086000D02*
X81126000Y-48546000D01*
X78386000Y-55086000D02*
X81126000Y-55086000D01*
X79756000Y-48546000D02*
X79756000Y-47776000D01*
X79756000Y-55086000D02*
X79756000Y-55856000D01*
X81126000Y-48546000D02*
X78386000Y-48546000D01*
X78386000Y-48546000D02*
X78386000Y-55086000D01*
D10*
%TO.C,SW5*%
X46624000Y-105014000D02*
X46624000Y-106014000D01*
X46624000Y-118014000D02*
X46624000Y-119014000D01*
X45624000Y-119014000D02*
X46624000Y-119014000D01*
X46624000Y-105014000D02*
X45624000Y-105014000D01*
X32624000Y-119014000D02*
X33624000Y-119014000D01*
X33624000Y-105014000D02*
X32624000Y-105014000D01*
X32624000Y-106014000D02*
X32624000Y-105014000D01*
X32624000Y-119014000D02*
X32624000Y-118014000D01*
D12*
%TO.C,D3*%
X77241000Y-100859000D02*
X77241000Y-97769000D01*
X71691000Y-99313952D02*
G75*
G02*
X77241000Y-97769170I2990000J-48D01*
G01*
X77241000Y-100858830D02*
G75*
G02*
X71691000Y-99314048I-2560000J1544830D01*
G01*
X77181000Y-99314000D02*
G75*
G02*
X72181000Y-99314000I-2500000J0D01*
G01*
X72181000Y-99314000D02*
G75*
G02*
X77181000Y-99314000I2500000J0D01*
G01*
%TO.C,J1*%
X41148000Y-83760000D02*
X42478000Y-83760000D01*
X42478000Y-83760000D02*
X42478000Y-85090000D01*
X42478000Y-88960000D02*
X42478000Y-86360000D01*
X39818000Y-86360000D02*
X42478000Y-86360000D01*
X39818000Y-88960000D02*
X42478000Y-88960000D01*
X39818000Y-88960000D02*
X39818000Y-86360000D01*
%TO.C,R14*%
X65378000Y-55086000D02*
X65378000Y-48546000D01*
X62638000Y-55086000D02*
X65378000Y-55086000D01*
X64008000Y-48546000D02*
X64008000Y-47776000D01*
X64008000Y-55086000D02*
X64008000Y-55856000D01*
X65378000Y-48546000D02*
X62638000Y-48546000D01*
X62638000Y-48546000D02*
X62638000Y-55086000D01*
%TO.C,R16*%
X66902000Y-88106000D02*
X66902000Y-81566000D01*
X64162000Y-88106000D02*
X66902000Y-88106000D01*
X65532000Y-81566000D02*
X65532000Y-80796000D01*
X65532000Y-88106000D02*
X65532000Y-88876000D01*
X66902000Y-81566000D02*
X64162000Y-81566000D01*
X64162000Y-81566000D02*
X64162000Y-88106000D01*
%TO.C,R9*%
X54202000Y-88106000D02*
X54202000Y-81566000D01*
X51462000Y-88106000D02*
X54202000Y-88106000D01*
X52832000Y-81566000D02*
X52832000Y-80796000D01*
X52832000Y-88106000D02*
X52832000Y-88876000D01*
X54202000Y-81566000D02*
X51462000Y-81566000D01*
X51462000Y-81566000D02*
X51462000Y-88106000D01*
%TO.C,R17*%
X69950000Y-88106000D02*
X69950000Y-81566000D01*
X67210000Y-88106000D02*
X69950000Y-88106000D01*
X68580000Y-81566000D02*
X68580000Y-80796000D01*
X68580000Y-88106000D02*
X68580000Y-88876000D01*
X69950000Y-81566000D02*
X67210000Y-81566000D01*
X67210000Y-81566000D02*
X67210000Y-88106000D01*
%TO.C,R22*%
X76554000Y-88106000D02*
X76554000Y-81566000D01*
X73814000Y-88106000D02*
X76554000Y-88106000D01*
X75184000Y-81566000D02*
X75184000Y-80796000D01*
X75184000Y-88106000D02*
X75184000Y-88876000D01*
X76554000Y-81566000D02*
X73814000Y-81566000D01*
X73814000Y-81566000D02*
X73814000Y-88106000D01*
%TO.C,R24*%
X82650000Y-88106000D02*
X82650000Y-81566000D01*
X79910000Y-88106000D02*
X82650000Y-88106000D01*
X81280000Y-81566000D02*
X81280000Y-80796000D01*
X81280000Y-88106000D02*
X81280000Y-88876000D01*
X82650000Y-81566000D02*
X79910000Y-81566000D01*
X79910000Y-81566000D02*
X79910000Y-88106000D01*
%TO.C,R1*%
X93186000Y-94234000D02*
X93956000Y-94234000D01*
X93186000Y-95604000D02*
X93186000Y-92864000D01*
X86646000Y-95604000D02*
X93186000Y-95604000D01*
X93186000Y-92864000D02*
X86646000Y-92864000D01*
X86646000Y-92864000D02*
X86646000Y-95604000D01*
X86646000Y-94234000D02*
X85876000Y-94234000D01*
%TD*%
M02*
