%TF.GenerationSoftware,KiCad,Pcbnew,8.0.7*%
%TF.CreationDate,2024-12-12T20:06:27+02:00*%
%TF.ProjectId,circuit diagram,63697263-7569-4742-9064-69616772616d,rev?*%
%TF.SameCoordinates,Original*%
%TF.FileFunction,Other,ECO2*%
%FSLAX46Y46*%
G04 Gerber Fmt 4.6, Leading zero omitted, Abs format (unit mm)*
G04 Created by KiCad (PCBNEW 8.0.7) date 2024-12-12 20:06:27*
%MOMM*%
%LPD*%
G01*
G04 APERTURE LIST*
%ADD10C,0.150000*%
G04 APERTURE END LIST*
D10*
%TO.C,SW3*%
X101300000Y-31904000D02*
X101300000Y-45704000D01*
X87500000Y-45704000D02*
X101300000Y-45704000D01*
X97000000Y-32504000D02*
X97000000Y-35704000D01*
X91800000Y-35704000D02*
X97000000Y-35704000D01*
X97000000Y-32504000D02*
X91800000Y-32504000D01*
X91800000Y-32504000D02*
X91800000Y-35704000D01*
X101300000Y-31904000D02*
X87500000Y-31904000D01*
X87500000Y-45704000D02*
X87500000Y-31904000D01*
%TO.C,SW2*%
X64812000Y-105114000D02*
X64812000Y-118914000D01*
X51012000Y-118914000D02*
X64812000Y-118914000D01*
X60512000Y-105714000D02*
X60512000Y-108914000D01*
X55312000Y-108914000D02*
X60512000Y-108914000D01*
X60512000Y-105714000D02*
X55312000Y-105714000D01*
X55312000Y-105714000D02*
X55312000Y-108914000D01*
X64812000Y-105114000D02*
X51012000Y-105114000D01*
X51012000Y-118914000D02*
X51012000Y-105114000D01*
%TO.C,SW4*%
X83100000Y-105114000D02*
X83100000Y-118914000D01*
X69300000Y-118914000D02*
X83100000Y-118914000D01*
X78800000Y-105714000D02*
X78800000Y-108914000D01*
X73600000Y-108914000D02*
X78800000Y-108914000D01*
X78800000Y-105714000D02*
X73600000Y-105714000D01*
X73600000Y-105714000D02*
X73600000Y-108914000D01*
X83100000Y-105114000D02*
X69300000Y-105114000D01*
X69300000Y-118914000D02*
X69300000Y-105114000D01*
%TO.C,SW1*%
X101388000Y-105114000D02*
X101388000Y-118914000D01*
X87588000Y-118914000D02*
X101388000Y-118914000D01*
X97088000Y-105714000D02*
X97088000Y-108914000D01*
X91888000Y-108914000D02*
X97088000Y-108914000D01*
X97088000Y-105714000D02*
X91888000Y-105714000D01*
X91888000Y-105714000D02*
X91888000Y-108914000D01*
X101388000Y-105114000D02*
X87588000Y-105114000D01*
X87588000Y-118914000D02*
X87588000Y-105114000D01*
%TO.C,SW5*%
X46524000Y-105114000D02*
X46524000Y-118914000D01*
X32724000Y-118914000D02*
X46524000Y-118914000D01*
X42224000Y-105714000D02*
X42224000Y-108914000D01*
X37024000Y-108914000D02*
X42224000Y-108914000D01*
X42224000Y-105714000D02*
X37024000Y-105714000D01*
X37024000Y-105714000D02*
X37024000Y-108914000D01*
X46524000Y-105114000D02*
X32724000Y-105114000D01*
X32724000Y-118914000D02*
X32724000Y-105114000D01*
%TD*%
M02*
