%TF.GenerationSoftware,KiCad,Pcbnew,8.0.7*%
%TF.CreationDate,2024-12-12T20:06:27+02:00*%
%TF.ProjectId,circuit diagram,63697263-7569-4742-9064-69616772616d,rev?*%
%TF.SameCoordinates,Original*%
%TF.FileFunction,Legend,Top*%
%TF.FilePolarity,Positive*%
%FSLAX46Y46*%
G04 Gerber Fmt 4.6, Leading zero omitted, Abs format (unit mm)*
G04 Created by KiCad (PCBNEW 8.0.7) date 2024-12-12 20:06:27*
%MOMM*%
%LPD*%
G01*
G04 APERTURE LIST*
%ADD10C,0.152400*%
G04 APERTURE END LIST*
D10*
X39701535Y-51777731D02*
X39701535Y-50964931D01*
X40165992Y-51777731D02*
X39817650Y-51313274D01*
X40165992Y-50964931D02*
X39701535Y-51429388D01*
X40901383Y-51777731D02*
X40514335Y-51777731D01*
X40514335Y-51777731D02*
X40514335Y-50964931D01*
X41404545Y-50964931D02*
X41404545Y-51545503D01*
X41404545Y-51545503D02*
X41365840Y-51661617D01*
X41365840Y-51661617D02*
X41288431Y-51739027D01*
X41288431Y-51739027D02*
X41172316Y-51777731D01*
X41172316Y-51777731D02*
X41094907Y-51777731D01*
X41791592Y-51468093D02*
X42410869Y-51468093D01*
X43223669Y-51777731D02*
X42759212Y-51777731D01*
X42991440Y-51777731D02*
X42991440Y-50964931D01*
X42991440Y-50964931D02*
X42914031Y-51081046D01*
X42914031Y-51081046D02*
X42836621Y-51158455D01*
X42836621Y-51158455D02*
X42759212Y-51197160D01*
X36237333Y-40150831D02*
X36237333Y-39338031D01*
X36237333Y-39725079D02*
X36701790Y-39725079D01*
X36701790Y-40150831D02*
X36701790Y-39338031D01*
X37243657Y-39338031D02*
X37398476Y-39338031D01*
X37398476Y-39338031D02*
X37475886Y-39376736D01*
X37475886Y-39376736D02*
X37553295Y-39454146D01*
X37553295Y-39454146D02*
X37592000Y-39608965D01*
X37592000Y-39608965D02*
X37592000Y-39879898D01*
X37592000Y-39879898D02*
X37553295Y-40034717D01*
X37553295Y-40034717D02*
X37475886Y-40112127D01*
X37475886Y-40112127D02*
X37398476Y-40150831D01*
X37398476Y-40150831D02*
X37243657Y-40150831D01*
X37243657Y-40150831D02*
X37166248Y-40112127D01*
X37166248Y-40112127D02*
X37088838Y-40034717D01*
X37088838Y-40034717D02*
X37050134Y-39879898D01*
X37050134Y-39879898D02*
X37050134Y-39608965D01*
X37050134Y-39608965D02*
X37088838Y-39454146D01*
X37088838Y-39454146D02*
X37166248Y-39376736D01*
X37166248Y-39376736D02*
X37243657Y-39338031D01*
X38327391Y-40150831D02*
X37940343Y-40150831D01*
X37940343Y-40150831D02*
X37940343Y-39338031D01*
X38598324Y-39725079D02*
X38869258Y-39725079D01*
X38985372Y-40150831D02*
X38598324Y-40150831D01*
X38598324Y-40150831D02*
X38598324Y-39338031D01*
X38598324Y-39338031D02*
X38985372Y-39338031D01*
M02*
