M48
; DRILL file {KiCad 8.0.7} date 2024-12-12T20:06:30+0200
; FORMAT={-:-/ absolute / inch / decimal}
; #@! TF.CreationDate,2024-12-12T20:06:30+02:00
; #@! TF.GenerationSoftware,Kicad,Pcbnew,8.0.7
; #@! TF.FileFunction,Plated,1,2,PTH
FMAT,2
INCH
; #@! TA.AperFunction,Plated,PTH,ComponentDrill
T1C0.0236
; #@! TA.AperFunction,Plated,PTH,ComponentDrill
T2C0.0315
; #@! TA.AperFunction,Plated,PTH,ComponentDrill
T3C0.0354
; #@! TA.AperFunction,Plated,PTH,ComponentDrill
T4C0.0394
; #@! TA.AperFunction,Plated,PTH,ComponentDrill
T5C0.0500
%
G90
G05
T1
X1.48Y-1.2696
X1.48Y-2.0504
T2
X1.44Y-2.36
X1.44Y-2.46
X1.44Y-2.56
X1.44Y-2.66
X1.44Y-2.76
X1.44Y-2.86
X1.44Y-2.96
X1.44Y-3.06
X1.54Y-3.71
X1.74Y-2.36
X1.74Y-2.46
X1.74Y-2.56
X1.74Y-2.66
X1.74Y-2.76
X1.74Y-2.86
X1.74Y-2.96
X1.74Y-3.06
X1.94Y-2.4
X1.94Y-3.0
X1.94Y-3.71
X1.96Y-3.14
X1.96Y-3.54
X2.02Y-1.84
X2.02Y-2.24
X2.04Y-2.4
X2.04Y-3.0
X2.08Y-3.14
X2.08Y-3.54
X2.14Y-1.84
X2.14Y-2.24
X2.14Y-2.4
X2.14Y-3.0
X2.14Y-3.71
X2.2Y-3.14
X2.2Y-3.54
X2.24Y-2.4
X2.24Y-3.0
X2.26Y-1.84
X2.26Y-2.24
X2.32Y-1.36
X2.32Y-1.66
X2.32Y-3.14
X2.32Y-3.54
X2.34Y-2.4
X2.34Y-3.0
X2.42Y-1.36
X2.42Y-1.66
X2.44Y-2.4
X2.44Y-3.0
X2.46Y-3.14
X2.46Y-3.54
X2.52Y-1.36
X2.52Y-1.66
X2.52Y-1.84
X2.52Y-2.24
X2.54Y-2.4
X2.54Y-3.0
X2.54Y-3.71
X2.58Y-3.14
X2.58Y-3.54
X2.62Y-1.36
X2.62Y-1.66
X2.64Y-1.84
X2.64Y-2.24
X2.64Y-2.4
X2.64Y-3.0
X2.7Y-3.14
X2.7Y-3.54
X2.72Y-1.36
X2.72Y-1.66
X2.74Y-2.4
X2.74Y-3.0
X2.74Y-3.71
X2.76Y-1.84
X2.76Y-2.24
X2.82Y-1.36
X2.82Y-1.66
X2.82Y-3.14
X2.82Y-3.54
X2.84Y-2.4
X2.84Y-3.0
X2.92Y-1.36
X2.92Y-1.66
X2.94Y-2.4
X2.94Y-3.0
X2.96Y-3.14
X2.96Y-3.54
X3.02Y-1.36
X3.02Y-1.66
X3.02Y-1.84
X3.02Y-2.24
X3.04Y-2.4
X3.04Y-3.0
X3.08Y-3.14
X3.08Y-3.54
X3.14Y-1.84
X3.14Y-2.24
X3.14Y-2.4
X3.14Y-3.0
X3.14Y-3.71
X3.2Y-3.14
X3.2Y-3.54
X3.24Y-2.4
X3.24Y-3.0
X3.26Y-1.84
X3.26Y-2.24
X3.32Y-3.14
X3.32Y-3.54
X3.34Y-2.4
X3.34Y-3.0
X3.34Y-3.71
X3.54Y-2.36
X3.54Y-2.46
X3.54Y-2.56
X3.54Y-2.66
X3.54Y-2.76
X3.54Y-2.86
X3.54Y-2.96
X3.54Y-3.06
X3.74Y-3.71
X3.84Y-2.36
X3.84Y-2.46
X3.84Y-2.56
X3.84Y-2.66
X3.84Y-2.76
X3.84Y-2.86
X3.84Y-2.96
X3.84Y-3.06
T3
X1.6902Y-3.91
X1.7902Y-3.91
X2.2902Y-3.91
X2.3902Y-3.91
X2.8902Y-3.91
X2.9902Y-3.91
X3.4902Y-3.91
X3.5902Y-3.91
T4
X1.28Y-3.35
X1.28Y-3.45
X1.28Y-3.55
X1.28Y-3.65
X1.28Y-3.75
X1.28Y-3.85
X1.3Y-2.5602
X1.3Y-2.6602
X1.3Y-2.7602
X1.3Y-2.8602
X1.3Y-2.9602
X1.62Y-3.35
X1.62Y-3.45
X3.98Y-3.45
X3.98Y-3.55
X3.98Y-3.65
X3.98Y-3.75
T5
X1.56Y-4.6423
X1.7569Y-4.5596
X2.28Y-4.6423
X2.4769Y-4.5596
X3.0Y-4.6423
X3.1969Y-4.5596
X3.7165Y-1.76
X3.72Y-4.6423
X3.9134Y-1.6773
X3.9169Y-4.5596
M30
